<svg width="39" height="56" viewBox="0 0 39 56" fill="none" xmlns="http://www.w3.org/2000/svg">
<path d="M19.0416 0.121582H36.9769C37.2934 0.121582 37.2706 0.123206 37.2706 0.412446C37.269 6.67254 37.269 12.931 37.269 19.1911V34.7379C37.269 34.8026 37.269 34.8672 37.2608 34.9318C37.2445 35.0497 37.2102 35.0789 37.0927 35.0869C37.0715 35.0886 37.0487 35.0869 37.0274 35.0869H1.12593C0.824049 35.0869 0.809366 35.0724 0.809366 34.7654V32.9878V0.520716C0.809366 0.428608 0.80773 0.338123 0.80773 0.246014C0.80773 0.16683 0.848532 0.126432 0.928489 0.124819C0.988846 0.123195 1.04761 0.123195 1.10798 0.123195C7.08532 0.121593 13.0642 0.121593 19.0416 0.121593V0.121582ZM19.0432 16.2048H34.0543C34.087 16.2048 34.1196 16.2065 34.1522 16.2048C34.2713 16.1968 34.317 16.1596 34.3334 16.0384C34.3464 15.9371 34.3529 15.8351 34.353 15.733C34.3545 11.5752 34.3545 7.41749 34.3545 3.2581C34.3545 3.21446 34.3578 3.17084 34.353 3.12882C34.3399 2.99631 34.2631 2.92682 34.1293 2.92199C34.0478 2.91875 33.9661 2.92199 33.8846 2.92199H4.17254C4.09094 2.92199 4.00935 2.91714 3.92776 2.9236C3.81842 2.93167 3.73683 3.01247 3.72215 3.11913C3.71726 3.15629 3.71889 3.19507 3.71889 3.23224C3.71889 7.38516 3.71889 11.538 3.72051 15.691C3.72051 15.7767 3.72704 15.8639 3.73357 15.9496C3.75479 16.1758 3.79068 16.2081 4.01425 16.2081C9.02554 16.2048 14.0336 16.2048 19.0432 16.2048ZM19.0351 32.2688H34.0641C34.0853 32.2688 34.1081 32.2704 34.1293 32.2688C34.286 32.2623 34.3349 32.2203 34.3464 32.0684C34.353 31.994 34.3545 31.9181 34.3545 31.8422V19.5111C34.3545 19.4141 34.3513 19.3171 34.348 19.2202C34.3399 19.0456 34.2974 19.0069 34.1179 19.0036C34.0527 19.002 33.9874 19.0036 33.9221 19.0036H4.04199C3.99793 19.0036 3.95387 19.0021 3.91144 19.0053C3.78906 19.0166 3.74663 19.0586 3.73847 19.1765C3.73031 19.2832 3.72215 19.3915 3.72215 19.4998C3.72051 23.6106 3.72051 27.7199 3.72215 31.8309C3.72215 31.9229 3.73031 32.0134 3.7401 32.1039C3.75315 32.2105 3.79885 32.2527 3.90981 32.2655C3.94734 32.2704 3.9865 32.2671 4.02403 32.2671C9.02554 32.2688 14.0303 32.2688 19.0351 32.2688ZM22.643 52.5598C22.5581 52.6164 22.5059 52.6924 22.4766 52.7764C22.4178 52.9444 22.2971 53.0705 22.1959 53.2063C22.0686 53.3775 21.9267 53.544 21.77 53.6878C21.5758 53.8655 21.38 54.0465 21.1401 54.1661C21.1303 54.1709 21.1188 54.1742 21.1123 54.1823C20.8758 54.402 20.5575 54.4716 20.2867 54.6299C20.2002 54.68 20.0925 54.6961 19.9929 54.7252C19.7122 54.8077 19.4332 54.8901 19.1526 54.9709C19.1166 54.9806 19.0775 54.9887 19.0416 54.9887C18.4427 54.9902 17.8455 54.9902 17.2465 54.9887C17.1943 54.9887 17.1422 54.966 17.09 54.953C16.9855 54.9256 16.8811 54.8965 16.775 54.869C16.6819 54.8432 16.589 54.8157 16.4959 54.7899C16.4748 54.7834 16.4551 54.7737 16.434 54.7705C16.1762 54.7381 15.9542 54.6169 15.7224 54.5087C15.4189 54.3681 15.1529 54.1807 14.9065 53.9625C14.8185 53.8849 14.7564 53.7783 14.6683 53.7008C14.51 53.5618 14.4154 53.3791 14.2995 53.2127C14.2115 53.0867 14.1559 52.9364 14.094 52.7942C14.0384 52.6714 13.9845 52.5469 13.9455 52.4193C13.9013 52.2755 13.8687 52.1284 13.8377 51.9813C13.6941 51.3156 13.6534 50.6418 13.6549 49.9599C13.6615 47.494 13.6566 45.0265 13.6566 42.5589C13.6566 42.2793 13.673 42.2632 13.9487 42.2615H14.9767C15.0257 42.2615 15.0746 42.2632 15.1236 42.268C15.1906 42.2761 15.2329 42.3165 15.2378 42.3844C15.2428 42.4588 15.246 42.5347 15.246 42.6106C15.246 45.0992 15.2492 47.5877 15.2428 50.0762C15.2411 50.6079 15.326 51.1266 15.4092 51.6485C15.4206 51.7212 15.4484 51.794 15.4793 51.8634C15.5707 52.0686 15.6507 52.2835 15.7666 52.4743C15.8841 52.6681 15.9966 52.8782 16.2055 53.0027C16.3769 53.2547 16.6722 53.3258 16.9104 53.4793C16.9415 53.4987 16.9807 53.51 17.0165 53.5198C17.3379 53.594 17.6578 53.6975 17.9842 53.733C18.3546 53.7735 18.7331 53.7654 19.1085 53.7508C19.3402 53.7428 19.5719 53.6991 19.7874 53.599C19.8216 53.5827 19.8592 53.5763 19.8967 53.5714C20.0909 53.5488 20.2589 53.4648 20.4123 53.3484C20.4335 53.3323 20.4548 53.3145 20.4792 53.3032C20.7795 53.1578 21.0275 52.9509 21.2608 52.7151C21.4273 52.5469 21.5513 52.3563 21.6933 52.1736C21.8597 51.9587 21.9642 51.7131 22.0947 51.4821C22.1632 51.3624 22.191 51.2219 22.2367 51.0894C22.2775 50.973 22.3248 50.8583 22.3525 50.7404C22.395 50.5626 22.4211 50.3817 22.4553 50.2022C22.5027 49.9485 22.55 49.6964 22.5957 49.4428C22.6038 49.4008 22.6055 49.3571 22.6055 49.3151C22.6103 48.2325 22.6185 47.1498 22.6202 46.0671C22.6218 44.8826 22.6202 43.6965 22.6202 42.5121C22.6202 42.4797 22.6185 42.4475 22.6218 42.4151C22.6332 42.3068 22.6659 42.2713 22.7735 42.2648C22.8437 42.26 22.9155 42.2648 22.9856 42.2648C23.3234 42.2648 23.6597 42.2632 23.9975 42.2632C24.154 42.2632 24.1736 42.2858 24.1818 42.441C24.1851 42.4943 24.1834 42.5493 24.1834 42.6026V54.3002C24.1834 54.3811 24.1834 54.4618 24.1753 54.5427C24.1639 54.6589 24.1508 54.6719 24.0365 54.68C23.9337 54.6865 23.8293 54.6848 23.7265 54.6848C23.454 54.6848 23.1831 54.6865 22.9106 54.6816C22.7474 54.68 22.7344 54.6702 22.7311 54.5055C22.7246 54.1661 22.7263 53.8268 22.7263 53.4874C22.7263 53.2564 22.7295 53.0236 22.7311 52.7926C22.7295 52.7086 22.7295 52.6229 22.643 52.5598ZM6.09337 54.992C5.79964 54.992 5.50592 54.9953 5.21219 54.9905C5.13876 54.9888 5.06532 54.9613 4.99353 54.9435C4.97232 54.9387 4.95273 54.9258 4.93315 54.9209C4.64269 54.8515 4.35222 54.7853 4.06339 54.7109C3.97527 54.6883 3.89042 54.6511 3.80557 54.6172C3.64564 54.5525 3.48247 54.4927 3.32582 54.4184C3.20016 54.3587 3.08267 54.281 2.96355 54.2099C2.9456 54.1986 2.93254 54.1744 2.9146 54.1696C2.70409 54.1194 2.56538 53.9547 2.39894 53.8383C2.18191 53.688 1.98609 53.5054 1.8017 53.318C1.59772 53.1111 1.41658 52.8816 1.22567 52.6619C1.21914 52.6538 1.20935 52.6457 1.20446 52.6377C1.08697 52.4341 0.971105 52.2289 0.855241 52.0252C0.825874 51.9735 0.798121 51.9202 0.76713 51.8701C0.674114 51.7231 0.610476 51.5647 0.559886 51.3983C0.512566 51.2399 0.435868 51.0912 0.37223 50.9377C0.352652 50.8876 0.328169 50.8392 0.31511 50.7874C0.223729 50.3899 0.132348 49.9908 0.0474968 49.5916C0.0246488 49.4817 0.00833037 49.3686 0.00670637 49.2555C0.00180077 48.7497 0.00833037 48.2423 0.000176772 47.7365C-0.00471763 47.4505 0.0931928 47.1855 0.148666 46.9124C0.186198 46.7234 0.249836 46.5392 0.275954 46.3484C0.308591 46.1093 0.401596 45.8944 0.499506 45.6779C0.52399 45.6246 0.554991 45.5696 0.56478 45.513C0.599052 45.3224 0.71001 45.1688 0.794873 45.0008C0.896042 44.7972 1.0217 44.613 1.14081 44.4222C1.20446 44.3221 1.2681 44.2268 1.34642 44.1379C1.48513 43.9812 1.60751 43.8083 1.75274 43.6564C1.90124 43.5013 2.06605 43.3606 2.22923 43.2216C2.37283 43.1004 2.52622 42.9873 2.67798 42.8774C2.7612 42.8176 2.84932 42.7643 2.93907 42.7159C3.17568 42.585 3.40577 42.446 3.6636 42.3588C3.81209 42.3087 3.95569 42.2441 4.10418 42.1939C4.22657 42.1519 4.35385 42.1196 4.47951 42.0873C5.31663 41.8643 6.16843 41.8756 7.02187 41.937C7.12468 41.945 7.22585 41.9709 7.32538 41.9952C7.63706 42.0679 7.952 42.1325 8.25879 42.223C8.45949 42.2828 8.65205 42.3749 8.84297 42.4638C9.01758 42.5462 9.19219 42.6335 9.3521 42.7401C9.58545 42.8952 9.81553 43.0552 10.0228 43.2459C10.261 43.4641 10.4634 43.7097 10.6314 43.9763C10.775 44.2042 10.9268 44.4352 11.0002 44.705C11.0622 44.9378 11.1699 45.1592 11.2336 45.3918C11.2875 45.5889 11.3119 45.7926 11.3412 45.9946C11.356 46.0899 11.3151 46.1336 11.2189 46.1513C11.1814 46.1578 11.1438 46.1594 11.1047 46.1594C10.7457 46.1594 10.3867 46.161 10.0277 46.1594C9.82696 46.1578 9.77964 46.1417 9.74373 45.9444C9.69641 45.6844 9.57729 45.4549 9.47939 45.2189C9.35699 44.9232 9.20197 44.6389 8.97841 44.3981C8.83971 44.2477 8.7108 44.0878 8.55904 43.9504C8.24409 43.6645 7.87857 43.4673 7.46246 43.351C6.89132 43.1893 6.31366 43.1117 5.72458 43.1748C5.46186 43.2022 5.2024 43.2701 4.94294 43.3218C4.84666 43.3412 4.75201 43.3655 4.65901 43.3978C4.56763 43.4285 4.48114 43.4737 4.39302 43.5125C4.32449 43.5433 4.25105 43.5659 4.18577 43.6046C3.98506 43.7226 3.7713 43.8261 3.59506 43.9714C3.34703 44.1766 3.0843 44.3689 2.89828 44.6389C2.87054 44.6776 2.82811 44.7067 2.79873 44.7455C2.73673 44.8262 2.68124 44.9103 2.62086 44.9927C2.58007 45.0492 2.52785 45.0994 2.49359 45.1592C2.36468 45.3886 2.23739 45.6181 2.11664 45.8508C2.08073 45.9218 2.06442 46.0027 2.03994 46.0786C2.02852 46.1141 2.02362 46.153 2.00567 46.1869C1.85391 46.4761 1.7658 46.7832 1.73806 47.108C1.73153 47.1872 1.70379 47.2647 1.68747 47.3454C1.663 47.4716 1.64178 47.5992 1.6173 47.7252C1.5553 48.0485 1.5455 48.3764 1.56345 48.7044C1.57651 48.9388 1.60588 49.1747 1.64178 49.4074C1.68257 49.6627 1.72989 49.9164 1.79191 50.1669C1.83597 50.3414 1.91266 50.5079 1.97467 50.6791C1.99099 50.7244 2.00731 50.7696 2.02526 50.8149C2.08073 50.9539 2.13132 51.0961 2.1966 51.2318C2.27002 51.387 2.34509 51.5437 2.43974 51.6875C2.63555 51.9881 2.84443 52.2805 3.11042 52.5278C3.25565 52.6635 3.38456 52.83 3.55264 52.9285C3.74192 53.04 3.89368 53.2129 4.11561 53.276C4.18741 53.2969 4.24779 53.3486 4.31632 53.3826C4.4077 53.4278 4.49745 53.4828 4.59536 53.5118C5.23829 53.7058 5.89102 53.8366 6.56823 53.7446C6.74446 53.7204 6.91417 53.6606 7.08714 53.6169C7.13936 53.604 7.18995 53.5797 7.24216 53.5716C7.40697 53.549 7.55547 53.4876 7.69907 53.4069C7.80351 53.3486 7.91121 53.2986 8.01727 53.2436C8.11682 53.1903 8.2033 53.116 8.29632 53.0562C8.45787 52.9512 8.57536 52.8057 8.72385 52.6925C8.7418 52.6797 8.76628 52.6716 8.77607 52.6555C8.88377 52.4874 9.05511 52.3742 9.14976 52.1949C9.21993 52.0624 9.32436 51.9476 9.39616 51.8167C9.50386 51.618 9.60177 51.416 9.68988 51.2092C9.73558 51.1025 9.75515 50.983 9.78127 50.8682C9.81553 50.7163 9.84491 50.5644 9.87265 50.4109C9.89712 50.2849 9.94934 50.2266 10.0783 50.2251C10.4807 50.2203 10.8833 50.2203 11.2858 50.2251C11.4244 50.2266 11.4604 50.2703 11.4408 50.4093C11.4179 50.5612 11.3821 50.7131 11.3446 50.8618C11.2776 51.117 11.2157 51.3724 11.1308 51.6213C11.0492 51.8604 10.9578 52.0979 10.8419 52.3209C10.7212 52.552 10.5629 52.7637 10.4193 52.9834C10.3932 53.0238 10.372 53.0691 10.3393 53.1047C10.1892 53.2727 10.0652 53.4602 9.88244 53.5991C9.84002 53.6314 9.81064 53.6783 9.76985 53.7154C9.71436 53.7656 9.65562 53.8124 9.5985 53.8592C9.58545 53.869 9.56586 53.8722 9.55607 53.8836C9.39127 54.0952 9.13181 54.176 8.92783 54.3344C8.8903 54.3635 8.84624 54.3861 8.80218 54.407C8.62595 54.4912 8.4497 54.5719 8.27184 54.6527C8.22777 54.6721 8.18209 54.6915 8.13477 54.7044C7.87204 54.7707 7.60279 54.8192 7.34823 54.9065C7.08387 54.9969 6.81626 54.9985 6.54538 55.0018C6.39362 55.0033 6.24023 55.0018 6.08847 55.0018C6.09337 54.9985 6.09337 54.9953 6.09337 54.992ZM28.3023 48.8788C28.4165 48.8708 28.5308 48.8773 28.6449 48.8773C30.701 48.8756 32.7571 48.8723 34.8132 48.8723C35.8249 48.8723 36.8367 48.8756 37.8484 48.8773C37.9185 48.8773 37.987 48.8708 38.0801 48.866C38.0801 48.5201 38.0817 48.197 38.0801 47.8753C38.0784 47.6604 38.0784 47.4471 38.0131 47.237C37.9724 47.1045 37.9642 46.9624 37.9365 46.825C37.8924 46.615 37.8419 46.4064 37.7945 46.1964C37.7733 46.1027 37.7652 46.0024 37.7292 45.9136C37.5987 45.6017 37.522 45.2705 37.3638 44.9699C37.2935 44.8374 37.2544 44.6856 37.1663 44.5692C37.0031 44.3558 36.9085 44.0941 36.6963 43.9148C36.6718 43.8953 36.6522 43.863 36.644 43.8339C36.6131 43.7289 36.5315 43.6642 36.4548 43.598C36.4222 43.5705 36.3911 43.5398 36.3601 43.5091C36.2296 43.375 36.1154 43.2215 35.9669 43.1116C35.634 42.866 35.3044 42.6106 34.9209 42.4378C34.8311 42.3974 34.7381 42.3667 34.6532 42.3198C34.4379 42.1986 34.2029 42.142 33.9662 42.0855C33.8651 42.0629 33.7655 42.0387 33.6644 42.016C33.5372 41.9886 33.4098 41.9514 33.2809 41.9401C32.7277 41.8916 32.1729 41.8851 31.6182 41.9271C31.5316 41.9336 31.4436 41.9336 31.3587 41.9514C31.1465 41.9934 30.9344 42.0452 30.7223 42.0904C30.3812 42.1614 30.063 42.3004 29.7513 42.4475C29.6257 42.5073 29.5114 42.5897 29.3858 42.6526C29.0937 42.7997 28.8391 42.9985 28.5976 43.215C28.4703 43.3298 28.3431 43.4477 28.2256 43.5722C28.0902 43.716 27.9449 43.8582 27.8388 44.023C27.6773 44.2703 27.519 44.5207 27.3738 44.7793C27.1975 45.0928 27.0768 45.4272 26.9544 45.7568C26.8255 46.1092 26.7422 46.4792 26.6639 46.846C26.5562 47.3469 26.535 47.8609 26.5252 48.3715C26.5154 48.9208 26.5448 49.4703 26.6427 50.0116C26.6851 50.2443 26.7602 50.4721 26.7977 50.7049C26.863 51.112 27.0328 51.4837 27.1796 51.8634C27.2301 51.9943 27.302 52.1123 27.3704 52.2335C27.4618 52.3951 27.5125 52.5809 27.6593 52.7102C27.674 52.7231 27.6806 52.7473 27.6936 52.7651C27.8013 52.9187 27.896 53.0867 28.0216 53.2241C28.2713 53.4987 28.5308 53.7686 28.844 53.9755C28.9076 54.0175 28.9598 54.0741 29.0236 54.1128C29.1378 54.1839 29.2553 54.2501 29.3743 54.3132C29.4641 54.3617 29.5588 54.4004 29.6518 54.4441C29.7301 54.4796 29.8085 54.5168 29.8884 54.5507C30.0075 54.6025 30.1217 54.6687 30.2457 54.7026C30.5591 54.7866 30.8805 54.8481 31.1922 54.9353C31.3146 54.9693 31.4337 54.9919 31.5594 54.9919C32.0864 54.9935 32.6152 54.9952 33.1423 54.9935C33.3315 54.9935 33.5224 54.9984 33.7019 54.9127C33.7394 54.8949 33.7868 54.8949 33.8293 54.8853C33.9712 54.8513 34.1164 54.8255 34.2568 54.7818C34.5032 54.7059 34.7659 54.6978 34.9992 54.554C35.2081 54.4247 35.4577 54.3665 35.6617 54.2211C35.7711 54.1435 35.8951 54.0854 35.9962 53.9981C36.1627 53.8575 36.3373 53.7266 36.489 53.5683C36.6294 53.4228 36.7354 53.2467 36.8872 53.1125C36.9019 53.0997 36.9019 53.0721 36.9133 53.0544C36.9296 53.0269 36.9492 53.0011 36.9672 52.9736C37.0504 52.8556 37.1385 52.7409 37.2152 52.6181C37.3653 52.3757 37.5106 52.1301 37.5938 51.8538C37.6003 51.8344 37.6183 51.8182 37.6264 51.7988C37.6983 51.6437 37.7929 51.4966 37.8059 51.3173C37.8092 51.2704 37.8337 51.2251 37.8484 51.1783C37.8908 51.0458 37.9381 50.9133 37.9724 50.7791C38.0001 50.6693 37.9577 50.6176 37.8484 50.5966C37.8223 50.5918 37.7945 50.5918 37.7667 50.5918C37.3963 50.5918 37.0275 50.5885 36.6571 50.5918C36.4629 50.5933 36.3896 50.6612 36.3455 50.8535C36.3226 50.9537 36.3178 51.0619 36.2721 51.1509C36.1447 51.3965 36.0419 51.6534 35.9033 51.8942C35.7548 52.1511 35.5491 52.3644 35.3827 52.6068C35.3599 52.6407 35.3158 52.6601 35.2831 52.6876C35.2505 52.7151 35.2098 52.7377 35.1852 52.7716C35.0531 52.9639 34.836 53.0527 34.6696 53.2015C34.6353 53.2322 34.5831 53.2435 34.5374 53.2644C34.4982 53.2822 34.4542 53.2952 34.4199 53.3178C34.0822 53.5472 33.6775 53.5796 33.2988 53.6862C33.1895 53.7169 33.0753 53.7395 32.9627 53.7428C32.5988 53.7493 32.2349 53.7476 31.8711 53.7428C31.7747 53.7412 31.6768 53.7186 31.5839 53.696C31.4321 53.6588 31.2819 53.6087 31.1302 53.5763C30.9915 53.5472 30.856 53.5182 30.732 53.4438C30.621 53.376 30.5069 53.3113 30.3877 53.2628C30.1723 53.1756 30.0124 53.0124 29.8329 52.8782C29.6714 52.7555 29.5343 52.6004 29.3923 52.4533C29.2618 52.3191 29.128 52.1851 29.0186 52.0348C28.9027 51.8732 28.8016 51.6987 28.7151 51.5192C28.5226 51.1153 28.3333 50.7097 28.2729 50.2589C28.2663 50.2104 28.2549 50.1635 28.2387 50.1167C28.1292 49.7789 28.1212 49.4283 28.1146 49.0776C28.1113 48.9258 28.144 48.8886 28.3023 48.8788ZM28.1326 47.3292C28.1521 47.1643 28.1831 47.0027 28.2484 46.846C28.3039 46.7086 28.3284 46.5567 28.3594 46.4097C28.4312 46.0688 28.5879 45.7585 28.738 45.4498C28.8619 45.1962 29.0398 44.9667 29.2047 44.7356C29.3614 44.5174 29.5522 44.3301 29.7529 44.1474C30.0353 43.8905 30.3502 43.6933 30.6929 43.5237C30.9654 43.3896 31.2493 43.3249 31.5382 43.2506C31.9885 43.1342 32.4438 43.1214 32.8974 43.1924C33.0198 43.2117 33.1406 43.2376 33.2597 43.2667C33.4604 43.3152 33.6595 43.3734 33.8602 43.4219C33.994 43.5189 34.1507 43.577 34.2975 43.6529C34.3857 43.6982 34.4706 43.7483 34.5439 43.8178C34.5603 43.8323 34.5782 43.8452 34.5978 43.855C34.8002 43.9455 34.9503 44.1086 35.0988 44.2573C35.2326 44.3914 35.4023 44.5046 35.4757 44.6919C35.7108 44.8907 35.7906 45.1897 35.9686 45.4257C35.9816 45.4433 35.993 45.4612 36.0012 45.4822C36.0975 45.7326 36.1937 45.9848 36.29 46.2352C36.2965 46.2497 36.3014 46.2659 36.3047 46.282C36.3586 46.5665 36.4157 46.8525 36.4662 47.1385C36.4825 47.2339 36.4858 47.3324 36.4842 47.4278C36.4825 47.5618 36.4418 47.599 36.3063 47.6023C36.2247 47.6055 36.1432 47.6023 36.0615 47.6023H28.3756C28.1277 47.6023 28.1032 47.5781 28.1326 47.3292Z" fill="black"/>
</svg>
