<svg height="12px" width="12px" xmlns="http://www.w3.org/2000/svg"><use href="#icon-copy"></use><symbol id="icon-copy" viewBox="0 0 12 12" fill="none"><path d="M7.66667 8.64706V10.6078C7.66667 10.8244 7.49109 11 7.27451 11H1.39216C1.17557 11 1 10.8244 1 10.6078L1 4.72549C1 4.50891 1.17557 4.33333 1.39216 4.33333H3.35294" stroke="#21313C" stroke-linecap="round" stroke-linejoin="round"></path><rect x="4.3335" y="7.6665" width="6.66667" height="6.66667" rx="1" transform="rotate(-90 4.3335 7.6665)" stroke="#21313C" stroke-linecap="round" stroke-linejoin="round"></rect></symbol><symbol id="icon-copy" viewBox="0 0 12 12" fill="none"><path d="M7.66667 8.64706V10.6078C7.66667 10.8244 7.49109 11 7.27451 11H1.39216C1.17557 11 1 10.8244 1 10.6078L1 4.72549C1 4.50891 1.17557 4.33333 1.39216 4.33333H3.35294" stroke="#21313C" stroke-linecap="round" stroke-linejoin="round"></path><rect x="4.3335" y="7.6665" width="6.66667" height="6.66667" rx="1" transform="rotate(-90 4.3335 7.6665)" stroke="#21313C" stroke-linecap="round" stroke-linejoin="round"></rect></symbol><symbol id="icon-copy" viewBox="0 0 12 12" fill="none"><path d="M7.66667 8.64706V10.6078C7.66667 10.8244 7.49109 11 7.27451 11H1.39216C1.17557 11 1 10.8244 1 10.6078L1 4.72549C1 4.50891 1.17557 4.33333 1.39216 4.33333H3.35294" stroke="#21313C" stroke-linecap="round" stroke-linejoin="round"></path><rect x="4.3335" y="7.6665" width="6.66667" height="6.66667" rx="1" transform="rotate(-90 4.3335 7.6665)" stroke="#21313C" stroke-linecap="round" stroke-linejoin="round"></rect></symbol></svg>