<svg width="180" height="23" viewBox="0 0 180 23" fill="none" xmlns="http://www.w3.org/2000/svg">
<g clip-path="url(#clip0_1067_4570)">
<path d="M6.54689 10.187C6.48131 10.1012 6.3947 10.0338 6.29543 9.99123C6.19617 9.94867 6.0876 9.93244 5.98023 9.9441C5.87286 9.95577 5.77031 9.99494 5.6825 10.0578C5.59469 10.1207 5.52459 10.2052 5.47897 10.3031L0.0676591 21.1223C0.0183628 21.2209 -0.00491228 21.3305 4.36607e-05 21.4406C0.00499961 21.5507 0.0380221 21.6578 0.0959758 21.7515C0.15393 21.8453 0.234891 21.9227 0.331173 21.9764C0.427455 22.0301 0.535862 22.0583 0.646101 22.0583H8.18107C8.30175 22.0611 8.42065 22.0288 8.52333 21.9653C8.62601 21.9019 8.70806 21.81 8.75951 21.7008C10.3849 18.3421 9.39986 13.2352 6.54689 10.187Z" fill="url(#paint0_linear_1067_4570)"/>
<path d="M10.5158 0.34635C9.16741 2.42102 8.38165 4.81061 8.23558 7.28062C8.08952 9.75063 8.58817 12.2162 9.6826 14.4353L13.3153 21.7007C13.369 21.8081 13.4516 21.8985 13.5537 21.9616C13.6559 22.0248 13.7736 22.0582 13.8937 22.0582H21.4273C21.5376 22.0582 21.646 22.03 21.7423 21.9763C21.8385 21.9226 21.9195 21.8452 21.9775 21.7515C22.0354 21.6577 22.0684 21.5507 22.0734 21.4405C22.0784 21.3304 22.0551 21.2208 22.0058 21.1222C22.0058 21.1222 11.8705 0.849358 11.6158 0.342291C11.5654 0.239076 11.487 0.152148 11.3895 0.0914761C11.292 0.0308047 11.1794 -0.00115204 11.0645 -0.000728261C10.9497 -0.000304481 10.8373 0.0324826 10.7402 0.093872C10.6431 0.155261 10.5654 0.242767 10.5158 0.34635Z" fill="#2684FF"/>
<path d="M98.8811 9.0213C98.8811 11.7004 100.124 13.8274 104.985 14.7665C107.886 15.3754 108.493 15.8435 108.493 16.8103C108.493 17.7493 107.884 18.3572 105.841 18.3572C103.372 18.3128 100.953 17.6581 98.7982 16.4514V20.8151C100.262 21.5332 102.195 22.3343 105.786 22.3343C110.868 22.3343 112.885 20.0678 112.885 16.6997L98.8811 9.0213ZM112.885 16.6997C112.885 13.5233 111.2 12.0316 106.449 11.01C103.825 10.4299 103.19 9.85006 103.19 9.0213C103.19 7.97266 104.129 7.52986 105.869 7.52986C107.968 7.52986 110.04 8.16514 112.001 9.04904V4.87816C110.121 4.02233 108.073 3.5977 106.007 3.63536C101.312 3.63536 98.8811 5.67919 98.8811 9.0213" fill="#0052CC"/>
<path d="M164.173 3.91138V22.0582H168.04V8.22026L169.67 11.8935L175.139 22.0582H180V3.91138H176.133V15.6226L174.669 12.225L170.277 3.91138H164.173Z" fill="#0052CC"/>
<path d="M139.579 3.91138H135.353V22.0582H139.579V3.91138Z" fill="#0052CC"/>
<path d="M130.477 16.6997C130.477 13.5233 128.792 12.0316 124.041 11.01C121.417 10.4299 120.782 9.85006 120.782 9.0213C120.782 7.97266 121.721 7.52986 123.461 7.52986C125.561 7.52986 127.632 8.16514 129.593 9.04904V4.87816C127.713 4.02233 125.665 3.5977 123.599 3.63536C118.904 3.63536 116.473 5.67919 116.473 9.0213C116.473 11.7004 117.716 13.8274 122.577 14.7665C125.478 15.3754 126.085 15.8435 126.085 16.8103C126.085 17.7493 125.476 18.3572 123.433 18.3572C120.965 18.3128 118.545 17.6581 116.39 16.4514V20.8151C117.854 21.5332 119.788 22.3343 123.378 22.3343C128.461 22.3343 130.477 20.0678 130.477 16.6997Z" fill="#0052CC"/>
<path d="M66.0524 3.91138V22.0582H74.7385L76.1061 18.136H70.3058V3.91138H66.0524Z" fill="#0052CC"/>
<path d="M48.8912 3.91138V7.83328H53.5868V22.0582H57.8402V7.83328H62.8672V3.91138H48.8912Z" fill="#0052CC"/>
<path d="M42.7235 3.91138H37.1492L30.8212 22.0582H35.6537L36.5508 19.0019C38.7602 19.6507 41.1095 19.6507 43.3189 19.0019L44.216 22.0582H49.0495L42.7235 3.91138ZM39.9362 15.7295C39.149 15.7295 38.3659 15.6168 37.6106 15.395L39.9362 7.47573L42.2618 15.3977C41.5064 15.6186 40.7233 15.7304 39.9362 15.7295Z" fill="#0052CC"/>
<path d="M89.713 3.91138H84.1389L77.8109 22.0582H82.6445L83.5415 19.0019C85.7509 19.6507 88.1003 19.6507 90.3097 19.0019L91.2068 22.0582H96.0403L89.713 3.91138ZM86.9259 15.7295C86.1387 15.7295 85.3556 15.6168 84.6003 15.395L86.9259 7.47573L89.2515 15.3977C88.4961 15.6186 87.713 15.7304 86.9259 15.7295Z" fill="#0052CC"/>
<path d="M154.807 3.91138H149.233L142.905 22.0582H147.739L148.636 19.0019C150.845 19.6507 153.195 19.6507 155.404 19.0019L156.301 22.0582H161.135L154.807 3.91138ZM152.019 15.7295C151.231 15.7295 150.448 15.6168 149.693 15.395L152.019 7.47573L154.344 15.3977C153.589 15.6186 152.806 15.7304 152.019 15.7295Z" fill="#0052CC"/>
</g>
<defs>
<linearGradient id="paint0_linear_1067_4570" x1="9.5125" y1="11.8567" x2="3.80182" y2="21.7481" gradientUnits="userSpaceOnUse">
<stop stop-color="#0052CC"/>
<stop offset="0.923" stop-color="#2684FF"/>
</linearGradient>
<clipPath id="clip0_1067_4570">
<rect width="180" height="22.3343" fill="white"/>
</clipPath>
</defs>
</svg>
