<svg width="58" height="56" viewBox="0 0 58 56" fill="none" xmlns="http://www.w3.org/2000/svg">
<g clip-path="url(#clip0_1067_4709)">
<path d="M0.291992 0.317627H57.3922V55.6152H0.291992V0.317627Z" fill="white"/>
<path d="M0 -0.107422H57.6339V55.8926H0V-0.107422Z" fill="#008061"/>
<path d="M35.5347 52.2079V54.4499H21.7114V52.2037H11.2513C10.2292 52.2037 9.39669 51.1355 9.39669 49.8183L5.01978 5.55188C5.01978 4.2339 6.04184 3.16479 7.30305 3.16479H49.5722C50.8252 3.16479 51.8472 4.23391 51.8472 5.55188L47.5197 49.8183C47.5197 51.1355 46.6872 52.2037 45.6651 52.2037L35.5347 52.2079H35.5347Z" fill="white"/>
<path d="M12.7188 9.64624H41.0165C38.2303 10.6906 29.7485 16.4334 27.6301 20.2944H12.7436L12.7188 9.64624H12.7188Z" fill="#F5821F"/>
<path d="M35.2712 40.157C34.8673 44.013 34.8508 48.7089 34.8508 53.6414H22.5854C22.5854 48.7089 22.7915 44.013 23.1954 40.157H35.2712H35.2712Z" fill="#ED1B2D"/>
<path d="M16.2962 34.5847V36.0792H14.3344V37.5743H16.2962V39.2874H11.812V31.3157H16.2962V33.0913H14.3344V34.5847H16.2962Z" fill="#008061"/>
<path d="M26.7232 34.5847V36.0792H24.7699V37.5743H26.7232V39.2874H22.2476V31.3157H26.7232V33.0913H24.7699V34.5847H26.7232Z" fill="#008061"/>
<path d="M38.2136 34.5847V36.0792H36.2518V37.5743H38.2136V39.2874H33.7295V31.3157H38.2136V33.0913H36.2518V34.5847H38.2136Z" fill="#008061"/>
<path d="M19.6593 31.3157V37.5743H21.6209V39.2874H17.137V31.3157H19.6593Z" fill="#008061"/>
<path d="M30.3421 36.7033L29.3857 31.3157H27.1851L28.4378 39.2874H31.6772L33.1939 31.3157H31.3228L30.3421 36.7033Z" fill="#008061"/>
<path d="M39.2771 31.3157H41.7007V39.2865H39.2771V31.3157Z" fill="#008061"/>
<path d="M41.7004 33.6822C41.8324 32.8093 43.0688 33.0434 43.0688 33.542V39.2873H45.5004V32.5307C45.5004 31.0981 43.4809 30.5219 41.717 31.7831L41.7004 33.6822L41.7004 33.6822Z" fill="#008061"/>
<path d="M36.4087 30.1947C36.6559 27.144 40.835 22.1621 44.8822 20.8539V9.08472C33.7462 14.0668 26.5089 21.6016 24.9429 30.165L36.4087 30.1947L36.4087 30.1947Z" fill="#ED1B2D"/>
</g>
<defs>
<clipPath id="clip0_1067_4709">
<rect width="57.6339" height="56" fill="white"/>
</clipPath>
</defs>
</svg>
