<svg width="180" height="50" viewBox="0 0 180 50" fill="none" xmlns="http://www.w3.org/2000/svg">
<path d="M147.963 22.8324C147.963 23.0175 147.963 23.2027 147.963 23.4097C147.963 23.6167 147.952 23.8345 147.93 24.0633H133.072C133.094 24.9674 133.279 25.8062 133.606 26.6014C133.932 27.3966 134.401 28.0938 134.989 28.682C135.577 29.2703 136.264 29.7387 137.059 30.0873C137.854 30.4358 138.704 30.6101 139.63 30.6101C140.98 30.6101 142.146 30.2942 143.137 29.6624C144.118 29.0306 144.869 28.3117 145.381 27.4838L147.331 29.0197C146.263 30.3814 145.076 31.3618 143.791 31.95C142.505 32.5382 141.111 32.8324 139.63 32.8324C138.301 32.8324 137.07 32.5927 135.937 32.1243C134.804 31.645 133.823 30.9914 133.006 30.1417C132.189 29.2921 131.547 28.2899 131.067 27.1352C130.599 25.9805 130.359 24.7278 130.359 23.3661C130.359 22.0045 130.588 20.7518 131.046 19.5971C131.503 18.4424 132.146 17.4402 132.963 16.5905C133.78 15.7409 134.738 15.0873 135.839 14.608C136.939 14.1287 138.126 13.8999 139.401 13.8999C140.806 13.8999 142.048 14.1396 143.115 14.608C144.183 15.0873 145.076 15.7191 145.795 16.5361C146.514 17.3422 147.048 18.2899 147.418 19.3683C147.778 20.4358 147.963 21.6014 147.963 22.8324ZM145.316 21.9827C145.24 20.2833 144.695 18.8781 143.693 17.767C142.68 16.6559 141.242 16.0894 139.379 16.0894C138.508 16.0894 137.701 16.2528 136.961 16.5687C136.22 16.8955 135.566 17.3313 135.011 17.8759C134.444 18.4315 133.998 19.0524 133.671 19.7605C133.344 20.4685 133.148 21.2093 133.094 21.9718H145.316V21.9827Z" fill="#1A2632"/>
<path d="M161.634 16.5577H156.579V27.0697C156.579 27.7342 156.645 28.2897 156.775 28.7255C156.906 29.1612 157.091 29.4989 157.331 29.7494C157.57 29.9891 157.865 30.1634 158.191 30.2505C158.518 30.3377 158.878 30.3812 159.259 30.3812C159.618 30.3812 159.989 30.3268 160.392 30.2287C160.784 30.1307 161.165 29.9891 161.525 29.8039L161.645 32.0806C161.187 32.2549 160.708 32.3965 160.207 32.4836C159.706 32.5708 159.161 32.6143 158.584 32.6143C158.093 32.6143 157.592 32.549 157.048 32.4183C156.514 32.2875 156.013 32.0479 155.555 31.6884C155.098 31.3289 154.716 30.8387 154.422 30.2287C154.128 29.6078 153.987 28.8017 153.987 27.7995V16.5577H150.272V14.3682H153.987V9.28101H156.59V14.3682H161.645V16.5577H161.634Z" fill="#1A2632"/>
<path d="M176.928 18.6274C176.547 17.8867 175.969 17.2767 175.185 16.7974C174.401 16.3181 173.518 16.0893 172.527 16.0893C172.07 16.0893 171.612 16.1438 171.144 16.2418C170.686 16.3398 170.272 16.5141 169.913 16.7429C169.553 16.9716 169.27 17.2658 169.052 17.6252C168.834 17.9847 168.725 18.4096 168.725 18.8998C168.725 19.7494 169.074 20.3921 169.76 20.8387C170.446 21.2854 171.536 21.6666 173.017 21.9716C175.141 22.4074 176.699 23.0392 177.712 23.878C178.725 24.7167 179.226 25.8387 179.226 27.244C179.226 28.2679 179.03 29.1394 178.627 29.8475C178.235 30.5555 177.712 31.1329 177.08 31.5795C176.438 32.0261 175.719 32.3529 174.913 32.5381C174.107 32.7342 173.3 32.8322 172.483 32.8322C171.133 32.8322 169.815 32.549 168.54 31.9825C167.266 31.4161 166.22 30.5337 165.403 29.3246L167.473 27.7886C167.93 28.5838 168.605 29.2483 169.499 29.793C170.392 30.3377 171.372 30.5991 172.451 30.5991C173.017 30.5991 173.551 30.5446 174.063 30.4466C174.575 30.3486 175.022 30.1634 175.403 29.9128C175.784 29.6514 176.089 29.3246 176.318 28.9324C176.547 28.5294 176.666 28.0392 176.666 27.451C176.666 26.5032 176.209 25.7843 175.305 25.3159C174.401 24.8366 173.093 24.4008 171.383 23.9869C170.849 23.8562 170.283 23.7037 169.684 23.5076C169.085 23.3115 168.529 23.0283 168.017 22.6579C167.505 22.2875 167.08 21.8191 166.754 21.2527C166.427 20.6862 166.253 19.9782 166.253 19.1394C166.253 18.2135 166.427 17.4292 166.786 16.7756C167.146 16.122 167.625 15.5773 168.224 15.1634C168.823 14.7385 169.51 14.4226 170.272 14.2157C171.035 14.0087 171.83 13.9106 172.647 13.9106C173.9 13.9106 175.109 14.1939 176.285 14.7603C177.462 15.3268 178.344 16.122 178.932 17.1459L176.928 18.6274Z" fill="#1A2632"/>
<path d="M84.4443 32.3749C84.3898 31.8847 84.3571 31.3509 84.3244 30.7518C84.3026 30.1635 84.2809 29.6733 84.2809 29.2921H84.2046C83.6926 30.3487 82.8647 31.1984 81.7101 31.852C80.5663 32.5056 79.3462 32.8324 78.0717 32.8324C75.795 32.8324 74.0957 32.157 72.9628 30.7953C71.8299 29.4337 71.2634 27.6363 71.2634 25.4032V14.3574H73.8669V24.3247C73.8669 25.2725 73.9432 26.133 74.0957 26.9064C74.2482 27.6799 74.5096 28.3335 74.88 28.889C75.2504 29.4446 75.7514 29.8694 76.3724 30.1744C76.9933 30.4794 77.7776 30.6319 78.7253 30.6319C79.4116 30.6319 80.087 30.4903 80.7406 30.2071C81.3941 29.9239 81.9715 29.499 82.4835 28.9217C82.9955 28.3444 83.3985 27.6145 83.7144 26.7322C84.0194 25.8498 84.1719 24.804 84.1719 23.5949V14.3574H86.7754V28.4097C86.7754 28.8999 86.7863 29.5317 86.819 30.2942C86.8408 31.0677 86.8843 31.7539 86.9388 32.3749H84.4443Z" fill="#1A2632"/>
<path d="M53.3549 14.3573C53.4094 14.8475 53.4421 15.3813 53.4747 15.9695C53.4965 16.5578 53.5074 17.048 53.5074 17.4292H53.5837C54.0956 16.3726 54.9235 15.5229 56.0782 14.8693C57.222 14.2157 58.442 13.8889 59.7166 13.8889C61.9932 13.8889 63.6926 14.5643 64.8255 15.926C65.9584 17.2876 66.5248 19.085 66.5248 21.3181V32.3639H63.9213V22.3965C63.9213 21.4488 63.8451 20.5883 63.6926 19.8148C63.5401 19.0414 63.2786 18.3878 62.9083 17.8323C62.5379 17.2767 62.0368 16.8519 61.4159 16.5469C60.795 16.2419 59.9998 16.0894 59.063 16.0894C58.3767 16.0894 57.7013 16.231 57.0477 16.5142C56.3941 16.7974 55.8168 17.2222 55.3048 17.7996C54.7928 18.3769 54.3898 19.1068 54.0739 19.9891C53.7688 20.8715 53.6163 21.9172 53.6163 23.1264V32.3639H51.0129V18.3116C51.0129 17.8214 51.002 17.1896 50.9802 16.427C50.9584 15.6536 50.9148 14.9673 50.8604 14.3464H53.3549V14.3573Z" fill="#1A2632"/>
<path d="M15.8386 29.7277C15.1414 30.5774 14.2482 31.2201 13.1806 31.6449C12.1131 32.0698 11.0129 32.2876 9.91267 32.2876C8.62727 32.2876 7.46169 32.0589 6.41594 31.6013C5.38108 31.1438 4.47694 30.5011 3.7362 29.7059C2.99546 28.8998 2.41812 27.9521 2.02596 26.8737C1.62291 25.7952 1.42683 24.6188 1.42683 23.3878C1.42683 22.146 1.63381 20.9804 2.03686 19.902C2.43991 18.8236 3.02814 17.8759 3.75799 17.0698C4.49873 16.2745 5.39197 15.6318 6.43773 15.1743C7.47259 14.7168 8.63816 14.4881 9.90178 14.4881C10.3702 14.4881 10.8604 14.5316 11.3506 14.6188C11.8517 14.7059 12.3528 14.8366 12.843 15.0218C13.3332 15.207 13.8016 15.4358 14.2373 15.7081C14.673 15.9804 15.0761 16.3072 15.4247 16.6667L15.5118 16.7539L16.0129 16.1765L15.9475 16.1003C15.1959 15.305 14.27 14.7168 13.2024 14.3247C12.1349 13.9434 11.0347 13.7473 9.91267 13.7473C8.5728 13.7473 7.32008 13.987 6.18718 14.4663C5.05428 14.9456 4.063 15.621 3.24601 16.4706C2.42901 17.3203 1.78631 18.3443 1.33969 19.5207C0.893065 20.6972 0.664307 21.9935 0.664307 23.3769C0.664307 24.7604 0.893065 26.0567 1.33969 27.2332C1.78631 28.4096 2.42901 29.4445 3.24601 30.2942C4.063 31.1438 5.04339 31.8192 6.17629 32.2876C7.29829 32.7669 8.56191 33.0066 9.92357 33.0066C11.1327 33.0066 12.331 32.7778 13.4966 32.3203C14.6621 31.8628 15.6534 31.1656 16.4159 30.2397L16.4813 30.1634L15.9149 29.6297L15.8386 29.7277Z" fill="#1A2632"/>
<path d="M29.7712 23.9982C29.3137 23.6169 28.8126 23.3228 28.2788 23.1267C27.8976 22.9851 27.5381 22.8762 27.1895 22.8108C27.5163 22.7128 27.8431 22.5821 28.1699 22.4296C28.6165 22.2117 29.0196 21.9285 29.379 21.5799C29.7385 21.2313 30.0217 20.8065 30.2287 20.3163C30.4357 19.8261 30.5446 19.2487 30.5446 18.5951C30.5446 17.7455 30.3812 17.0374 30.0435 16.471C29.7167 15.9154 29.281 15.4688 28.7363 15.1311C28.2026 14.8043 27.5925 14.5646 26.9172 14.423C26.2418 14.2923 25.5555 14.2161 24.8801 14.2161H19.8801V32.4731H25.4901C26.122 32.4731 26.7973 32.3969 27.4727 32.2553C28.1699 32.1137 28.8126 31.8522 29.379 31.4928C29.9564 31.1333 30.4357 30.6213 30.8061 29.9895C31.1764 29.3577 31.3616 28.5407 31.3616 27.5494C31.3616 26.7324 31.2091 26.0243 30.9041 25.4361C30.61 24.8806 30.2287 24.3795 29.7712 23.9982ZM24.8474 22.5276H20.6427V14.9786H24.7167C25.3812 14.9786 26.0239 15.044 26.6339 15.1638C27.2331 15.2836 27.7668 15.4906 28.2352 15.7738C28.6928 16.057 29.0631 16.4383 29.3355 16.9067C29.6078 17.386 29.7494 17.9742 29.7494 18.6823C29.7494 19.3577 29.6078 19.9459 29.3246 20.4252C29.0413 20.9045 28.6601 21.3076 28.2026 21.6126C27.7451 21.9176 27.2113 22.1463 26.623 22.2989C26.0457 22.4514 25.4466 22.5276 24.8474 22.5276ZM20.6427 31.776V23.2575H25.501C26.0675 23.2575 26.6557 23.3337 27.244 23.4971C27.8431 23.6605 28.3878 23.9111 28.878 24.2596C29.3681 24.6082 29.7821 25.0657 30.098 25.6213C30.4139 26.1769 30.5773 26.8631 30.5773 27.6583C30.5773 28.3882 30.4357 29.02 30.1742 29.532C29.9019 30.044 29.5315 30.4797 29.0631 30.8065C28.5947 31.1333 28.0283 31.3838 27.3638 31.5363C26.6993 31.6997 25.9803 31.776 25.2069 31.776H20.6427Z" fill="#1A2632"/>
<path d="M33.1477 14.2483V14.9672H39.2588V32.4945H40.0322V14.9672H46.1433V14.2483H33.1477Z" fill="#1A2632"/>
<path d="M99.8911 28.4965C104.085 28.1262 107.2 24.4224 106.83 20.2285C106.46 16.0346 102.756 12.9301 98.5622 13.2895C94.3682 13.6599 91.2528 17.3636 91.6231 21.5575C91.9935 25.7514 95.6972 28.8669 99.8911 28.4965Z" fill="#FFBC00"/>
<path d="M104.227 30.3267C101.09 30.3267 98.5298 32.8866 98.5298 36.0238C98.5298 39.1611 101.079 41.721 104.227 41.721C107.364 41.721 109.924 39.1611 109.924 36.0238C109.924 32.8866 107.364 30.3267 104.227 30.3267Z" fill="#FFBC00"/>
<path d="M106.732 13.4097C107.865 13.3116 108.704 12.3095 108.606 11.1874C108.508 10.0546 107.505 9.21577 106.373 9.3247C105.24 9.42274 104.412 10.4249 104.51 11.5469C104.608 12.6689 105.61 13.5077 106.732 13.4097Z" fill="#FFBC00"/>
<path d="M128.475 33.4208C128.116 29.2269 124.401 26.1114 120.207 26.4818C116.013 26.8413 112.898 30.5559 113.268 34.7498C113.639 38.9437 117.342 42.0591 121.536 41.6888C125.73 41.3184 128.835 37.6147 128.475 33.4208Z" fill="#FFBC00"/>
<path d="M121.569 18.9655C121.569 15.8282 119.02 13.2683 115.872 13.2683C112.734 13.2683 110.175 15.8173 110.175 18.9655C110.175 22.1027 112.734 24.6626 115.872 24.6626C119.009 24.6518 121.569 22.1027 121.569 18.9655Z" fill="#FFBC00"/>
<path d="M122.473 13.4097C123.606 13.3116 124.445 12.3095 124.347 11.1874C124.249 10.0546 123.246 9.21577 122.114 9.3247C120.981 9.42274 120.153 10.4249 120.251 11.5469C120.349 12.6689 121.34 13.5077 122.473 13.4097Z" fill="#FFBC00"/>
</svg>
