<svg width="174" height="56" viewBox="0 0 174 56" fill="none" xmlns="http://www.w3.org/2000/svg">
<path d="M52.493 29.1911C51.8524 29.4949 51.185 29.7393 50.4998 29.9213C49.7276 30.1269 48.8503 30.3158 47.8937 30.4878C46.8985 30.6585 45.89 30.7427 44.8803 30.7397C42.7751 30.7597 40.681 30.4337 38.6817 29.7744C36.8545 29.1824 35.1817 28.1919 33.7841 26.8745C32.3854 25.5306 31.2895 23.9038 30.5694 22.1028C29.7623 20.0616 29.3685 17.8805 29.4111 15.686C29.3711 13.4864 29.7692 11.3008 30.582 9.25656C31.309 7.44899 32.4218 5.82194 33.8429 4.48907C35.2953 3.15734 37.0109 2.14511 38.8789 1.51778C40.9572 0.821304 43.1375 0.478015 45.3293 0.502168C47.0346 0.487767 48.7355 0.679405 50.3946 1.07293C51.7991 1.40755 53.1705 1.86971 54.4908 2.45365C54.2267 2.95969 54.041 3.50314 53.9408 4.0652C53.7983 4.74087 53.689 5.32422 53.6012 5.7439L53.3494 5.82781C52.987 5.4125 52.5895 5.02915 52.1615 4.68214C51.6084 4.22936 51.0174 3.82498 50.3946 3.47346C49.6711 3.05392 48.9026 2.71745 48.1031 2.47044C47.1967 2.1989 46.2547 2.06452 45.3083 2.07175C43.7235 2.05428 42.1489 2.32738 40.6626 2.87752C39.2461 3.40946 37.969 4.2561 36.9275 5.35359C35.8087 6.57566 34.9632 8.02206 34.4472 9.59648C33.8126 11.5625 33.5105 13.6206 33.5532 15.686C33.5109 17.7514 33.8129 19.8094 34.4472 21.7754C34.9621 23.3432 35.8064 24.7826 36.9233 25.9973C37.9625 27.0976 39.2403 27.9447 40.6583 28.4734C42.1439 29.0269 43.7189 29.3015 45.3041 29.2834C46.2561 29.2909 47.2044 29.1622 48.12 28.9015C48.9363 28.6652 49.7308 28.3606 50.4957 27.9908C51.1763 27.6603 51.8301 27.2772 52.4511 26.8451C53.0302 26.4254 53.5128 26.0771 53.9076 25.7623L54.0838 25.9344L53.7018 28.4524C53.3321 28.7494 52.926 28.9977 52.493 29.1911Z" fill="#00528A"/>
<path d="M55.4308 13.8269C56.0027 12.4039 56.8809 11.1245 58.0032 10.0792C59.141 9.02828 60.4881 8.23021 61.9564 7.73741C65.2404 6.66858 68.7784 6.66858 72.0624 7.73741C73.5243 8.23658 74.8642 9.03889 75.9947 10.0918C77.1201 11.1321 78.0025 12.4073 78.5798 13.8269C79.214 15.429 79.5263 17.1402 79.499 18.863C79.5263 20.5857 79.214 22.297 78.5798 23.8991C78.0089 25.3272 77.127 26.6102 75.9983 27.6548C74.8692 28.6995 73.522 29.4795 72.0542 29.9382C68.7588 30.9342 65.2431 30.9342 61.9482 29.9382C60.4872 29.4842 59.145 28.712 58.0178 27.6772C56.8909 26.6424 56.0072 25.3707 55.4308 23.9536C54.7966 22.3515 54.4843 20.6403 54.5116 18.9175C54.477 17.1765 54.7898 15.446 55.4308 13.8269ZM75.533 14.0997C75.1328 12.8527 74.4672 11.7072 73.5817 10.7423C72.7635 9.87607 71.7587 9.2073 70.6437 8.78661C69.4732 8.35878 68.2348 8.14557 66.9887 8.15709C65.7544 8.14698 64.5288 8.36024 63.371 8.78661C62.2565 9.20821 61.2521 9.87684 60.433 10.7423C59.5507 11.7094 58.8851 12.8542 58.4817 14.0997C57.9845 15.6446 57.7478 17.2614 57.781 18.884C57.7482 20.5079 57.985 22.126 58.4817 23.6724C58.8874 24.9095 59.553 26.0455 60.433 27.0046C61.2498 27.8728 62.2551 28.5419 63.371 28.9603C64.5283 29.3901 65.754 29.6049 66.9887 29.594C68.2353 29.6063 69.4741 29.3915 70.6437 28.9603C71.7605 28.5429 72.7658 27.8736 73.5817 27.0046C74.4649 26.0478 75.1305 24.911 75.533 23.6724C76.0338 22.1268 76.2719 20.5083 76.2382 18.884C76.2683 17.2647 76.027 15.6519 75.5248 14.1123L75.533 14.0997Z" fill="#00528A"/>
<path d="M91.5687 12.5386C92.4501 11.1034 93.3552 9.53099 94.284 7.82153C95.0935 8.03984 95.9467 8.03984 96.7562 7.82153C95.4887 9.58694 94.2421 11.309 93.0169 12.9877C91.7913 14.6664 90.6135 16.4123 89.483 18.2252C90.7478 20.3824 92.0208 22.4947 93.3019 24.5623C94.5836 26.6299 95.8916 28.6877 97.226 30.7357C96.9146 30.6925 96.6005 30.67 96.2859 30.6686H94.4228C94.1096 30.6698 93.7968 30.6922 93.4868 30.7357C92.5972 29.1116 91.7116 27.4665 90.8343 25.7794C89.9196 24.0469 88.9112 22.3657 87.8126 20.7433C86.6935 22.422 85.6377 24.1007 84.6442 25.7794C83.6663 27.458 82.7097 29.1116 81.7737 30.7357C81.5592 30.693 81.3416 30.6705 81.1231 30.6686H79.9566C79.7381 30.6705 79.5205 30.693 79.306 30.7357C80.6405 28.8947 81.9417 27.0272 83.2092 25.1331C84.4762 23.239 85.7438 21.314 87.0113 19.3584C85.8585 17.3999 84.6975 15.4764 83.5279 13.5878C82.3583 11.6993 81.1622 9.77721 79.9398 7.82153L80.8422 7.93485C81.1404 7.96905 81.4399 7.98589 81.74 7.98521C82.0414 7.98562 82.3428 7.96882 82.6424 7.93485L83.5406 7.82153C84.2709 9.31136 85.0681 10.7844 85.9118 12.2407C86.7554 13.697 87.691 15.2708 88.7149 16.962C89.7348 15.4512 90.6831 13.9697 91.5687 12.5386Z" fill="#00528A"/>
<path d="M22.8305 55.6476C22.5165 55.5997 22.1995 55.5756 21.882 55.5761H19.9893C19.6731 55.5761 19.3575 55.5997 19.045 55.6476C18.8771 55.0876 18.6491 54.426 18.3609 53.6621C18.0756 52.8899 17.7566 52.0799 17.4125 51.2281L16.3591 48.6598C16.0024 47.7912 15.6666 46.9812 15.3602 46.1754C14.5965 46.1417 13.8201 46.1417 13.0437 46.1417C12.2673 46.1417 11.4699 46.1417 10.6809 46.1417C9.89191 46.1417 9.21203 46.1417 8.4986 46.1417C7.78517 46.1417 7.05494 46.1667 6.32047 46.1922C5.55669 48.0511 4.86001 49.8222 4.22212 51.5054C3.58422 53.1881 3.13517 54.5731 2.82461 55.6685C2.38723 55.6175 1.94714 55.5938 1.50683 55.597C1.06373 55.5934 0.620828 55.617 0.180664 55.6685C2.11116 51.4995 3.9955 47.3518 5.83368 43.225C7.67185 39.0982 9.5198 34.9015 11.3775 30.6348H12.0532C12.6282 32.0155 13.2451 33.5138 13.9166 35.1211C14.5881 36.7284 15.2637 38.361 15.952 40.0061C16.6403 41.6512 17.3327 43.2796 18.0504 44.9079C18.768 46.5364 19.3891 48.0343 19.9977 49.4279C20.6062 50.8211 21.156 52.0717 21.6428 53.1631C22.1296 54.2539 22.5241 55.0766 22.8305 55.6476ZM6.98778 44.526C7.60888 44.526 8.24678 44.526 8.91828 44.5554C9.58973 44.5847 10.2319 44.5931 10.853 44.5931H12.8548L14.8608 44.5344L10.8865 35.4526L6.98778 44.526Z" fill="#808285"/>
<path d="M37.5778 38.9361C37.5816 37.9397 37.534 36.9437 37.4351 35.9522C37.6408 35.99 37.8548 36.0194 38.0268 36.0487C38.2129 36.0775 38.4009 36.0915 38.5892 36.0907C38.8743 36.0855 39.157 36.0389 39.4286 35.9522C39.374 36.6111 39.3152 37.3917 39.2607 38.3024C39.2062 39.2131 39.1558 40.1867 39.1222 41.2401C39.0887 42.2935 39.0425 43.3385 39.0047 44.4506C38.9669 45.5626 38.9375 46.608 38.9207 47.6401C38.922 48.7906 38.7276 49.9329 38.3458 51.0183C38.0099 51.9589 37.4777 52.8176 36.7846 53.5365C36.0848 54.2458 35.2322 54.7853 34.2918 55.1145C33.2025 55.4878 32.0563 55.6681 30.905 55.6477C28.0904 55.6477 26.0452 55.0112 24.7694 53.7382C23.4936 52.4652 22.8557 50.4478 22.8557 47.6861C22.8557 46.8051 22.8808 46.0075 22.927 45.3361C22.9732 44.6647 22.9983 43.9554 22.9983 43.2378C22.9983 41.6654 22.9788 40.2665 22.9396 39.0411C22.9004 37.8156 22.8626 36.7832 22.8263 35.9438C23.0529 35.9816 23.2963 36.011 23.5607 36.0404C23.8032 36.0679 24.0469 36.0819 24.2909 36.0823C24.4931 36.0833 24.6951 36.0692 24.8952 36.0404C25.0925 36.011 25.3149 35.9816 25.4996 35.9438C25.4618 36.3635 25.4241 36.8965 25.3905 37.5596C25.3569 38.2227 25.3149 38.9823 25.2772 39.8258C25.2394 40.6694 25.21 41.5843 25.1932 42.5537C25.1764 43.5232 25.1639 44.5429 25.1639 45.5963C25.1639 46.2301 25.1639 46.8975 25.1932 47.5773C25.2093 48.2484 25.2752 48.9176 25.3905 49.5792C25.4967 50.217 25.6799 50.8398 25.9361 51.434C26.1848 52.019 26.5537 52.5453 27.0188 52.9783C27.5303 53.4477 28.1353 53.8042 28.794 54.0232C29.6479 54.2968 30.5417 54.4243 31.438 54.4011C32.3267 54.4284 33.2118 54.2759 34.04 53.9522C34.6958 53.6863 35.2869 53.2824 35.7732 52.7684C36.2253 52.279 36.5825 51.7099 36.8266 51.0898C37.0824 50.441 37.2695 49.7672 37.3848 49.0797C37.495 48.385 37.5609 47.6843 37.582 46.9813C37.5988 46.2875 37.6072 45.6496 37.6072 45.0676C37.6044 42.4264 37.5946 40.3826 37.5778 38.9361Z" fill="#808285"/>
<path d="M46.7099 37.7819H45.1781C44.6409 37.7819 44.1038 37.8155 43.5708 37.8448C43.0378 37.8742 42.5216 37.9036 42.0222 37.9372C41.5228 37.9707 41.0779 38.0295 40.6876 38.0798C40.7744 37.7881 40.8223 37.4861 40.8303 37.1818C40.815 36.8864 40.7671 36.5937 40.6876 36.3088C41.9243 36.348 43.1343 36.3802 44.3178 36.4054C45.4971 36.4389 46.7099 36.4515 47.9438 36.4515C49.1776 36.4515 50.3946 36.4515 51.5783 36.4054C52.7616 36.3592 53.9663 36.3466 55.2042 36.3088C55.1236 36.6033 55.0772 36.9061 55.0658 37.2111C55.0735 37.5055 55.12 37.7976 55.2042 38.0798C54.814 38.0295 54.3646 37.9791 53.8698 37.9372C53.3744 37.8952 52.8581 37.8658 52.325 37.8448C51.7923 37.8238 51.255 37.7987 50.7219 37.7819H49.1817C49.1257 39.7124 49.0993 41.6541 49.102 43.607V48.4459C49.102 49.6838 49.123 50.9048 49.1694 52.1013C49.2154 53.2974 49.27 54.4848 49.3246 55.6475C48.9049 55.6098 48.4305 55.5888 47.9438 55.5888C47.4571 55.5888 46.9995 55.6098 46.5674 55.6475C46.6262 54.4848 46.6763 53.3056 46.7227 52.1013C46.7687 50.8967 46.7937 49.6838 46.7937 48.4459V43.6238C46.7937 41.6653 46.7659 39.718 46.7099 37.7819Z" fill="#808285"/>
<path d="M55.3467 41.3952C55.8302 40.1968 56.5691 39.1183 57.5125 38.2351C58.4736 37.3503 59.6104 36.6782 60.8488 36.2626C63.6192 35.3561 66.6063 35.3561 69.3767 36.2626C70.6142 36.6772 71.7501 37.3495 72.7085 38.2351C73.6532 39.118 74.394 40.1965 74.8784 41.3952C75.9023 44.1456 75.9023 47.1725 74.8784 49.9228C74.3981 51.128 73.655 52.2111 72.7035 53.0921C71.7515 53.9735 70.6151 54.6314 69.3767 55.0179C66.5959 55.857 63.6292 55.857 60.8488 55.0179C59.6091 54.6328 58.4713 53.9749 57.5193 53.0925C56.5673 52.2102 55.8247 51.1257 55.3467 49.9187C54.3182 47.1693 54.3182 44.1406 55.3467 41.391V41.3952ZM72.2974 41.6219C71.9591 40.5765 71.3977 39.6172 70.6524 38.81C69.9659 38.0778 69.12 37.5135 68.1803 37.1607C67.1932 36.7979 66.1479 36.6172 65.0957 36.6278C64.0549 36.6187 63.021 36.7993 62.0448 37.1607C61.1033 37.5122 60.256 38.0767 59.5685 38.81C58.8232 39.6172 58.2619 40.5765 57.9236 41.6219C57.1346 44.257 57.1346 47.0655 57.9236 49.7007C58.2614 50.7446 58.8228 51.703 59.5685 52.5084C60.2569 53.24 61.1042 53.8046 62.0448 54.1574C63.021 54.5189 64.0549 54.6997 65.0957 54.6906C66.1479 54.701 67.1932 54.5203 68.1803 54.1574C69.1195 53.8032 69.965 53.2391 70.6524 52.5084C71.3982 51.703 71.9596 50.7446 72.2974 49.7007C73.0864 47.0655 73.0864 44.257 72.2974 41.6219Z" fill="#808285"/>
<path d="M83.6075 43.7203C84.9337 46.2383 86.3187 48.8165 87.7624 51.4549C87.9468 51.098 88.22 50.5903 88.5765 49.9229C88.9334 49.2559 89.3445 48.4919 89.8353 47.6273C90.3266 46.7627 90.8051 45.8353 91.3423 44.8282C91.8796 43.821 92.4164 42.8096 92.9745 41.7772C93.5327 40.7448 94.074 39.7292 94.6199 38.7346L96.1392 35.9521H96.5084C96.7097 37.7539 96.9 39.4942 97.0789 41.1729C97.2583 42.8516 97.4345 44.5079 97.608 46.1417C97.7955 47.7676 97.9827 49.372 98.1702 50.9555C98.3551 52.5376 98.59 54.1115 98.7912 55.664C98.5723 55.6262 98.3505 55.6066 98.1283 55.6053H96.8103C96.5881 55.6066 96.3664 55.6262 96.1474 55.664C95.9403 53.1659 95.7317 50.7469 95.5223 48.4081C95.3124 46.0689 95.0606 43.677 94.7665 41.2316H94.7078C93.4152 43.5986 92.145 45.9487 90.8975 48.282C89.6496 50.6154 88.459 53.0511 87.3258 55.5889H87.074C85.9549 53.2301 84.7771 50.863 83.5406 48.4878C82.3036 46.1126 81.0697 43.6881 79.8391 41.2149H79.7845C79.6543 42.3774 79.5072 43.6406 79.3647 44.9919C79.2222 46.3434 79.0583 47.6947 78.9449 49.021C78.8316 50.3467 78.6973 51.5892 78.6007 52.7602C78.5042 53.9312 78.4664 54.8919 78.4664 55.6431C78.1395 55.6035 77.8099 55.5839 77.4803 55.5843C77.1507 55.5834 76.8215 55.603 76.4941 55.6431C76.7377 54.127 76.9909 52.5235 77.2536 50.8339C77.5167 49.1439 77.7698 47.4457 78.0134 45.7388C78.2565 44.0295 78.4819 42.3508 78.6891 40.7029C78.8962 39.055 79.0751 37.4742 79.2263 35.9605H79.7048C80.986 38.6213 82.2872 41.2079 83.6075 43.7203Z" fill="#808285"/>
<path d="M100.512 41.3952C100.995 40.1967 101.734 39.1183 102.678 38.2351C103.638 37.3489 104.775 36.6766 106.014 36.2626C108.783 35.3562 111.769 35.3562 114.538 36.2626C115.783 36.6755 116.928 37.3477 117.895 38.2351C118.838 39.1183 119.577 40.1967 120.06 41.3952C121.083 44.1443 121.083 47.1697 120.06 49.9187C119.582 51.1248 118.839 52.2084 117.887 53.0903C116.935 53.9717 115.798 54.6291 114.559 55.0138C111.779 55.8529 108.814 55.8529 106.035 55.0138C104.792 54.6319 103.651 53.9758 102.695 53.0939C101.739 52.212 100.993 51.1271 100.512 49.9187C99.477 47.1707 99.477 44.1393 100.512 41.391V41.3952ZM117.467 41.6218C117.122 40.5775 116.559 39.6188 115.814 38.81C115.129 38.0774 114.285 37.513 113.346 37.1607C112.36 36.7979 111.316 36.6173 110.265 36.6277C109.225 36.6183 108.191 36.799 107.215 37.1607C106.272 37.5133 105.423 38.0776 104.734 38.81C103.992 39.6193 103.431 40.578 103.089 41.6218C102.3 44.257 102.3 47.0655 103.089 49.7007C103.431 50.7433 103.992 51.7003 104.734 52.508C105.425 53.2391 106.273 53.8032 107.215 54.1574C108.191 54.5194 109.225 54.6997 110.265 54.6906C111.316 54.7011 112.36 54.5203 113.346 54.1574C114.285 53.8041 115.131 53.2401 115.818 52.508C116.563 51.7012 117.127 50.7437 117.471 49.7007C118.254 47.0646 118.254 44.2578 117.471 41.6218H117.467Z" fill="#808285"/>
<path d="M126.448 37.7819H124.921C124.383 37.7819 123.846 37.8155 123.313 37.8448C122.78 37.8742 122.264 37.9036 121.764 37.9372C121.265 37.9707 120.824 38.0295 120.43 38.0798C120.517 37.7881 120.564 37.4861 120.573 37.1818C120.557 36.8864 120.509 36.5937 120.43 36.3088C121.667 36.348 122.876 36.3802 124.06 36.4054C125.239 36.4389 126.448 36.4515 127.686 36.4515C128.924 36.4515 130.137 36.4515 131.32 36.4054C132.504 36.3592 133.708 36.3466 134.95 36.3088C134.868 36.6032 134.819 36.9058 134.804 37.2111C134.815 37.5058 134.864 37.7978 134.95 38.0798C134.556 38.0295 134.111 37.9791 133.612 37.9372C133.112 37.8952 132.6 37.8658 132.063 37.8448C131.526 37.8238 130.993 37.7987 130.46 37.7819H128.928C128.87 39.7124 128.84 41.6541 128.84 43.607V48.4459C128.84 49.6838 128.865 50.9048 128.912 52.1013C128.958 53.2974 129.012 54.4848 129.067 55.6475C128.647 55.6098 128.177 55.5888 127.686 55.5888C127.195 55.5888 126.742 55.6098 126.31 55.6475C126.364 54.4848 126.414 53.3056 126.465 52.1013C126.515 50.8967 126.536 49.6838 126.536 48.4459V43.6238C126.536 41.6653 126.507 39.718 126.448 37.7819Z" fill="#808285"/>
<path d="M137.494 39.9641C137.446 38.7722 137.394 37.5566 137.338 36.3171C137.586 36.3549 137.821 36.3885 138.044 36.4137C138.267 36.4459 138.493 36.4613 138.719 36.4598C138.945 36.461 139.171 36.4456 139.395 36.4137C139.617 36.3885 139.852 36.3549 140.1 36.3171C140.041 37.5566 139.99 38.7722 139.944 39.9641C139.894 41.1518 139.873 42.3688 139.873 43.6069V48.4459C139.873 49.6838 139.894 50.9049 139.944 52.1009C139.995 53.2969 140.041 54.4848 140.1 55.6471C139.68 55.6093 139.202 55.5884 138.719 55.5884C138.237 55.5884 137.771 55.6093 137.338 55.6471C137.397 54.4848 137.448 53.3056 137.494 52.1009C137.54 50.8967 137.565 49.6838 137.565 48.4459V43.6236C137.565 42.3646 137.54 41.1518 137.494 39.9641Z" fill="#808285"/>
<path d="M148.678 51.652C148.063 50.0963 147.402 48.4554 146.697 46.7295C145.992 45.003 145.269 43.2389 144.527 41.4371C143.789 39.6381 143.081 37.9315 142.404 36.3171C142.664 36.3549 142.92 36.3885 143.164 36.4137C143.63 36.4752 144.103 36.4752 144.57 36.4137C144.817 36.3885 145.069 36.3549 145.329 36.3171C145.749 37.5761 146.202 38.8352 146.697 40.2117C147.193 41.5882 147.717 42.9606 148.271 44.3623C148.825 45.7638 149.392 47.1952 149.975 48.643C150.558 50.0908 151.146 51.5218 151.746 52.9445C152.081 52.1765 152.451 51.3205 152.845 50.3722C153.24 49.4234 153.639 48.4413 154.041 47.4342C154.444 46.4271 154.843 45.3737 155.233 44.3119C155.624 43.2501 156.01 42.2345 156.379 41.2609C156.749 40.2872 157.076 39.3724 157.374 38.5288C157.672 37.6853 157.928 36.955 158.134 36.3339C158.474 36.4201 158.823 36.4679 159.174 36.4766C159.525 36.4685 159.875 36.4206 160.215 36.3339C158.755 39.5962 157.349 42.8333 155.997 46.0452C154.646 49.2572 153.35 52.4633 152.111 55.664C151.803 55.6253 151.494 55.6057 151.184 55.6052C150.874 55.6016 150.564 55.6212 150.256 55.664C149.825 54.5503 149.299 53.2132 148.678 51.652Z" fill="#808285"/>
<path d="M162.678 39.9179C162.631 38.7177 162.579 37.5174 162.523 36.3171C163.362 36.3563 164.202 36.3885 165.041 36.4137C165.88 36.4472 166.72 36.4598 167.559 36.4598C168.398 36.4598 169.238 36.4598 170.077 36.4137C170.917 36.3675 171.756 36.3549 172.595 36.3171C172.49 36.8717 172.49 37.4412 172.595 37.9958C171.999 37.9623 171.45 37.9245 170.954 37.8867L169.376 37.7734C168.822 37.7356 168.214 37.7021 167.563 37.6769C166.913 37.6517 166.12 37.6307 165.196 37.6307C165.196 38.2308 165.154 38.8016 165.125 39.3472C165.096 39.8928 165.083 40.5097 165.083 41.2063C165.083 41.903 165.083 42.65 165.083 43.3425C165.083 44.0349 165.083 44.5637 165.083 44.9204C165.923 44.9204 166.653 44.9204 167.308 44.8911C167.962 44.8617 168.566 44.8491 169.108 44.8197C169.649 44.7903 170.157 44.7652 170.61 44.7358C171.064 44.7064 171.508 44.677 171.92 44.6392C171.864 44.9255 171.836 45.2164 171.836 45.508C171.836 45.7897 171.864 46.0711 171.92 46.3475C171.433 46.2928 170.866 46.2464 170.241 46.2091C169.615 46.1713 168.94 46.1499 168.294 46.1376C167.647 46.1248 167.034 46.1376 166.464 46.1121H165.1C165.1 46.2801 165.1 46.4608 165.1 46.658C165.1 46.8551 165.1 47.1069 165.1 47.4051V50.1914C165.1 51.2577 165.1 52.1432 165.1 52.8353C165.1 53.5278 165.121 54.0568 165.142 54.4092H167.064C167.777 54.4092 168.478 54.4092 169.162 54.3714C169.846 54.3336 170.497 54.3045 171.106 54.2539C171.64 54.2198 172.171 54.1497 172.696 54.0441C172.659 54.1816 172.635 54.3218 172.625 54.4638C172.625 54.6232 172.625 54.7702 172.625 54.8836C172.618 55.1308 172.647 55.378 172.709 55.618C171.869 55.5788 171.03 55.5592 170.19 55.5592H165.083C164.244 55.5592 163.39 55.5788 162.523 55.618C162.582 54.4178 162.634 53.2232 162.678 52.034C162.725 50.8379 162.75 49.6292 162.75 48.3871V43.5817C162.75 42.3395 162.725 41.1056 162.678 39.9179Z" fill="#808285"/>
</svg>
