<svg width="180" height="32" viewBox="0 0 180 32" fill="none" xmlns="http://www.w3.org/2000/svg">
<path d="M15.9763 18.0097C14.6208 18.0097 13.8462 17.2351 13.8462 15.8795V12.3938C13.8462 11.9096 13.5557 11.5223 13.0715 11.4255C12.9747 11.4255 12.9747 11.4255 12.8779 11.4255H8.23023C7.7461 11.4255 7.3588 11.716 7.26197 12.2001C7.26197 12.2969 7.26197 12.2969 7.26197 12.3938V15.8795C7.26197 17.2351 6.48736 18.0097 5.13179 18.0097H2.13018C0.77461 18.0097 0 17.2351 0 15.8795V2.71113C0 1.35557 0.77461 0.580958 2.13018 0.580958H5.22862C6.58419 0.580958 7.3588 1.35557 7.3588 2.71113V5.13179C7.3588 5.61592 7.64927 6.00323 8.1334 6.10005C8.23023 6.10005 8.23023 6.10005 8.32706 6.10005H13.0715C13.5557 6.10005 13.943 5.80958 14.0398 5.32544C14.0398 5.22862 14.0398 5.22862 14.0398 5.13179V2.71113C14.0398 1.35557 14.7176 0.580958 16.17 0.580958H19.2684C20.624 0.580958 21.3986 1.35557 21.3986 2.71113V15.8795C21.3986 17.2351 20.624 18.0097 19.2684 18.0097C19.0748 17.9129 15.9763 17.9129 15.9763 18.0097ZM29.7257 18.2033C26.3367 18.2033 24.6907 16.6541 24.6907 13.6525V2.71113C24.6907 1.35557 25.4653 0.580958 26.8209 0.580958H29.6288C30.9844 0.580958 31.759 1.35557 31.759 2.71113V11.3287C31.759 12.4906 32.6305 12.6842 33.3082 12.6842C33.986 12.6842 34.6638 12.5874 35.2448 12.5874C35.7289 12.5874 36.1162 12.2001 36.1162 11.716V2.71113C36.1162 1.35557 36.8908 0.580958 38.2464 0.580958H41.1512C42.5067 0.580958 43.2813 1.35557 43.2813 2.71113V15.8795C43.2813 17.2351 42.6036 18.0097 41.1512 18.0097H39.6019C38.6337 18.0097 37.9559 17.7192 37.5686 17.1382L37.4718 17.0414C37.3749 16.8478 37.0845 16.6541 36.794 16.6541C36.6003 16.6541 36.5035 16.7509 36.3098 16.8478C34.1797 17.7192 31.9527 18.2033 29.7257 18.2033ZM69.5213 18.0097C68.1657 18.0097 67.3911 17.2351 67.3911 15.8795V7.26197C67.3911 6.39053 67.0038 6.00323 66.0355 6.00323H65.5514C65.2609 6.00323 64.8736 6.00323 64.5831 6.10005C64.099 6.19688 63.7117 6.68101 63.8085 7.16514V15.9763C63.8085 17.3319 63.0339 18.1065 61.6783 18.1065H59.1608C57.8053 18.1065 57.0307 17.3319 57.0307 15.9763V7.26197C57.0307 6.39053 56.5465 6.00323 55.5783 6.00323C55.0941 6.00323 54.61 6.00323 54.2227 6.10005C53.7386 6.19688 53.3513 6.58419 53.3513 7.16514V15.9763C53.3513 17.3319 52.5767 18.1065 51.2211 18.1065H48.4131C47.0576 18.1065 46.2829 17.3319 46.2829 15.9763V2.71113C46.2829 1.35557 47.0576 0.580958 48.4131 0.580958H49.8655C50.737 0.580958 51.3179 0.77461 51.802 1.25874L51.8989 1.45239C52.0925 1.64605 52.2862 1.93652 52.5767 1.93652C52.7703 1.93652 52.8671 1.8397 53.0608 1.8397C54.9005 0.677784 56.9338 0.0968262 58.9672 0.0968262C60.7101 0.0968262 61.9688 0.580958 62.7434 1.45239C62.9371 1.64605 63.1307 1.8397 63.4212 1.8397C63.6148 1.8397 63.8085 1.74287 64.0022 1.64605C65.5514 0.580958 67.3911 0.0968262 69.5213 0.0968262C72.8133 0.0968262 74.4594 1.74287 74.4594 4.84131V15.8795C74.4594 17.2351 73.6848 18.0097 72.3292 18.0097C72.3292 17.9129 69.5213 17.9129 69.5213 18.0097ZM82.6896 18.4938C81.0436 18.4938 79.5912 18.1065 78.5261 17.2351C77.3642 16.3636 76.7832 15.0081 76.7832 13.6525V11.9096C76.7832 9.19849 78.9134 7.55245 82.3991 7.55245H87.5309C88.1119 7.45562 88.1119 6.97149 88.1119 6.77784V6.48736C88.1119 5.32544 87.3373 5.13179 85.7881 5.13179C84.2388 5.13179 82.3991 5.13179 79.9785 5.22862H79.8817C78.6229 5.22862 77.9451 4.45401 77.7515 3.09844C77.6547 2.51748 77.7515 1.93652 78.1388 1.45239C78.5261 0.968262 79.0102 0.677784 79.5912 0.677784C82.3991 0.290479 85.0135 0.0968262 87.6278 0.0968262C93.05 0.0968262 95.1802 2.13018 95.1802 7.16514V15.8795C95.1802 17.0414 94.3088 18.0097 93.1469 18.0097C93.05 18.0097 93.05 18.0097 92.9532 18.0097H91.0167C90.3389 18.0097 89.6611 17.7192 89.3706 17.2351L89.2738 16.9446C89.2738 16.6541 89.0802 16.5573 88.9833 16.5573C88.8865 16.5573 88.7897 16.6541 88.6928 16.6541C87.1436 17.9129 85.1103 18.4938 82.6896 18.4938ZM85.2071 10.6509C84.2388 10.6509 83.6579 11.135 83.6579 12.0065V12.5874C83.6579 13.2652 84.142 13.943 85.4008 13.943C86.0785 13.943 86.8531 13.8462 87.5309 13.7493C87.9182 13.7493 88.3055 13.362 88.2087 12.8779V11.5223C88.2087 11.0382 87.9182 10.7477 87.4341 10.7477L85.2071 10.6509ZM112.028 18.0097C110.672 18.0097 109.898 17.2351 109.898 15.8795V7.26197C109.898 6.39053 109.414 6.00323 108.445 6.00323C107.671 6.00323 106.896 6.00323 106.218 6.10005C105.637 6.19688 105.347 6.48736 105.347 7.06832V15.8795C105.347 17.2351 104.572 18.0097 103.217 18.0097H100.409C99.0533 18.0097 98.2786 17.2351 98.2786 15.8795V2.71113C98.2786 1.35557 99.0533 0.580958 100.409 0.580958H101.958C102.733 0.580958 103.41 0.871436 103.895 1.45239L103.991 1.54922C104.088 1.8397 104.379 2.03335 104.669 2.03335C104.863 2.03335 105.056 1.93652 105.25 1.8397C107.574 0.677784 109.801 0 111.738 0C115.32 0 117.16 2.13018 117.16 6.19688V15.7827C117.16 17.1382 116.385 17.9129 115.03 17.9129L112.028 18.0097Z" fill="#6621C0"/>
<path d="M122.292 0.581055H125.099C126.261 0.581055 127.23 1.54932 127.23 2.71123V15.8796C127.23 17.0415 126.261 18.0098 125.099 18.0098H122.292C121.13 18.0098 120.161 17.0415 120.161 15.8796V2.71123C120.258 1.54932 121.13 0.581055 122.292 0.581055Z" fill="#6621C0"/>
<path d="M137.59 18.0096C136.235 18.0096 135.46 17.3319 135.46 15.9763V7.64923H131.974C130.522 7.64923 129.747 6.87462 129.747 5.51905V2.71109C129.747 1.35552 130.522 0.580909 131.974 0.580909H146.014C147.467 0.580909 148.241 1.35552 148.241 2.71109V5.51905C148.241 6.87462 147.467 7.64923 146.014 7.64923H142.528V15.9763C142.528 17.235 141.754 18.0096 140.398 18.0096H137.59ZM175.159 18.0096C174.578 18.0096 173.997 17.7192 173.416 17.235L170.124 14.2334L166.832 17.235C166.251 17.7192 165.67 18.0096 165.089 18.0096C164.508 18.0096 163.927 17.7192 163.346 17.235L161.119 15.2017C160.538 14.7175 160.248 14.1366 160.248 13.6525C160.248 13.1683 160.538 12.5874 161.119 12.1032L164.411 9.10162L161.119 6.10001C160.538 5.61588 160.248 5.03492 160.248 4.55079C160.248 4.06665 160.538 3.4857 161.119 3.00157L163.346 0.968214C163.927 0.484082 164.508 0.193604 165.089 0.193604C165.67 0.193604 166.251 0.484082 166.832 0.968214L170.124 3.96983L173.416 0.968214C173.997 0.484082 174.578 0.193604 175.159 0.193604C175.74 0.193604 176.321 0.484082 176.902 0.968214L179.129 3.00157C179.71 3.4857 180 4.06665 180 4.55079C180 5.03492 179.71 5.61588 179.129 6.10001L175.837 9.10162L179.129 12.1032C179.71 12.5874 180 13.1683 180 13.6525C180 14.1366 179.71 14.7175 179.129 15.2017L176.902 17.235C176.321 17.7192 175.74 18.0096 175.159 18.0096Z" fill="#360E6B"/>
<path d="M152.792 0.581055H155.6C156.762 0.581055 157.73 1.54932 157.73 2.71123V15.8796C157.73 17.0415 156.762 18.0098 155.6 18.0098H152.792C151.63 18.0098 150.662 17.0415 150.662 15.8796V2.71123C150.758 1.54932 151.63 0.581055 152.792 0.581055Z" fill="#360E6B"/>
<path d="M157.149 31.081C156.084 31.081 155.019 30.9842 153.954 30.8874C153.276 30.7906 152.695 30.5001 152.308 29.9191C151.92 29.3382 151.824 28.6604 151.92 28.0794L152.211 26.5302C152.501 25.3683 153.566 24.4969 154.825 24.6905C155.6 24.7873 156.374 24.7873 157.052 24.7873C161.313 24.7873 165.379 23.3349 167.413 21.1079C168.187 20.3333 169.349 20.1397 170.317 20.6238L171.77 21.3984C172.932 22.0762 173.319 23.4318 172.641 24.5937C172.544 24.6905 172.448 24.8842 172.351 24.981C169.156 28.854 163.443 31.081 157.149 31.081Z" fill="#360E6B"/>
</svg>
