<svg width="12" height="12" viewBox="0 0 12 12" fill="none" xmlns="http://www.w3.org/2000/svg">
<path fill-rule="evenodd" clip-rule="evenodd" d="M7.5 1C7.5 0.723858 7.72386 0.5 8 0.5H11C11.2761 0.5 11.5 0.723858 11.5 1V4C11.5 4.27614 11.2761 4.5 11 4.5C10.7239 4.5 10.5 4.27614 10.5 4V2.20711L4.85355 7.85355C4.65829 8.04882 4.34171 8.04882 4.14645 7.85355C3.95118 7.65829 3.95118 7.34171 4.14645 7.14645L9.79289 1.5H8C7.72386 1.5 7.5 1.27614 7.5 1Z" fill="#21313C"/>
<path fill-rule="evenodd" clip-rule="evenodd" d="M2 2.5C1.72386 2.5 1.5 2.72386 1.5 3V10C1.5 10.2761 1.72386 10.5 2 10.5H9C9.27614 10.5 9.5 10.2761 9.5 10V6C9.5 5.72386 9.72386 5.5 10 5.5C10.2761 5.5 10.5 5.72386 10.5 6V10C10.5 10.8284 9.82843 11.5 9 11.5H2C1.17157 11.5 0.5 10.8284 0.5 10V3C0.5 2.17157 1.17157 1.5 2 1.5H6C6.27614 1.5 6.5 1.72386 6.5 2C6.5 2.27614 6.27614 2.5 6 2.5H2Z" fill="#21313C"/>
</svg>
