<svg width="80" height="28" viewBox="0 0 80 28" fill="none" xmlns="http://www.w3.org/2000/svg">
<path fill-rule="evenodd" clip-rule="evenodd" d="M18.6505 1.79838C16.2626 0.630002 13.5885 0.237441 10.9806 0.672442C8.37267 1.10744 5.95342 2.34959 4.04173 4.23514C1.54817 6.72526 23.0615 3.96834 18.6505 1.79838Z" fill="#FCC397"/>
<path fill-rule="evenodd" clip-rule="evenodd" d="M23.2168 5.56917C23.2168 5.56917 22.185 7.08103 18.9176 7.5079C12.3655 8.39723 1.12735 8.45059 1.14455 8.39723C1.84571 6.83189 2.82919 5.41928 4.04223 4.23518C5.46579 4.6963 6.97562 4.79695 8.44464 4.52866C10.8522 4.05731 12.9846 2.63439 15.3664 2.04743C16.4425 1.79109 17.5503 1.70711 18.651 1.79842C20.4271 2.68522 21.9876 3.97396 23.2168 5.56917V5.56917Z" fill="#FC9F95"/>
<path fill-rule="evenodd" clip-rule="evenodd" d="M25.9406 11.8834C25.9406 11.9368 11.1771 13.3775 3.98016 12.9595C2.57544 12.9229 1.24111 12.3159 0.265625 11.2698C0.459678 10.2855 0.762617 9.32767 1.16846 8.41506C3.27507 7.21354 5.64154 6.58328 8.04722 6.58305C11.0223 6.58305 13.9372 7.64135 16.9208 7.56131C19.1516 7.4805 21.3224 6.79342 23.2149 5.56921C24.6443 7.38957 25.5844 9.56749 25.9406 11.8834V11.8834Z" fill="#F77C88"/>
<path fill-rule="evenodd" clip-rule="evenodd" d="M26.1049 14V14.2223C23.024 14.9367 19.8725 15.274 16.7154 15.2272C11.1252 15.072 5.54628 14.6238 0 13.8844C0.00939608 13.0061 0.0986398 12.1307 0.266552 11.2697C2.06416 12.4243 4.17963 12.9338 6.28547 12.7193C7.92616 12.4653 9.52223 11.965 11.0232 11.2342C12.5225 10.5066 14.0787 9.91161 15.675 9.45551C17.4603 9.02588 19.3167 9.02117 21.1041 9.44174C22.8915 9.86231 24.5632 10.6972 25.9931 11.8834C26.0868 12.5845 26.1242 13.2925 26.1049 14Z" fill="#F25192"/>
<path fill-rule="evenodd" clip-rule="evenodd" d="M11.2984 18.3844C7.38609 19.1759 0.662102 18.2865 0.644905 18.2154C0.2152 16.8545 -0.00248079 15.4316 2.13267e-05 14V13.8844C0.609715 13.3902 1.27002 12.9667 1.96907 12.6215C3.65861 11.7823 5.53725 11.4349 7.40329 11.6166C9.23113 11.8885 11.0084 12.4463 12.6741 13.2707C14.0759 13.9416 15.511 14.5353 16.9734 15.0494C17.1969 15.1116 15.6148 17.5573 11.2984 18.3844Z" fill="#D34CA3"/>
<path fill-rule="evenodd" clip-rule="evenodd" d="M25.6321 17.6017C25.357 18.082 22.7603 19.6917 19.2349 19.9674C14.5659 20.332 9.05432 18.8735 10.8858 18.1353C13.7577 16.9614 16.2598 14.8626 19.2349 13.9822C21.4977 13.3338 23.8982 13.4176 26.1137 14.2223C26.0954 15.3656 25.9335 16.5016 25.6321 17.6017V17.6017Z" fill="#9A50A5"/>
<path fill-rule="evenodd" clip-rule="evenodd" d="M24.3677 20.7322C22.1149 24.7787 5.76921 25.7925 3.37884 23.0711C2.15311 21.6651 1.22214 20.0119 0.644531 18.2154C2.64638 17.0198 4.97289 16.5386 7.26534 16.8458C10.1888 17.2549 12.8027 18.9447 15.6918 19.6028C18.0285 20.148 20.4664 20 22.7254 19.1759C23.7522 18.7938 24.7286 18.2799 25.6316 17.6462C25.3374 18.7258 24.9127 19.7626 24.3677 20.7322V20.7322Z" fill="#59569E"/>
<path fill-rule="evenodd" clip-rule="evenodd" d="M24.3849 20.6966C23.3622 22.5477 21.9301 24.122 20.2059 25.2905C18.4817 26.459 16.5144 27.1885 14.4651 27.4193C12.4159 27.6501 10.3429 27.3756 8.41593 26.6183C6.48899 25.8609 4.76287 24.6423 3.37891 23.0622C3.77444 23.2223 4.23875 23.3557 4.62568 23.4802C6.91156 24.1221 9.3242 24.1006 11.599 23.418C13.0522 22.9733 14.4107 22.2707 15.8295 21.746C18.5817 20.7267 21.5219 20.3679 24.4279 20.6966H24.3849Z" fill="#39477F"/>
<path fill-rule="evenodd" clip-rule="evenodd" d="M78.116 19.6113H75.2644V25.7819H78.1291C78.3625 25.8128 78.5995 25.7919 78.8244 25.7206C79.0492 25.6494 79.2569 25.5294 79.4334 25.3686C79.61 25.2079 79.7514 25.0101 79.8483 24.7884C79.9451 24.5667 79.9952 24.3262 79.9952 24.0829C80.0225 23.734 79.9273 23.3866 79.7269 23.1045C79.5266 22.8224 79.2345 22.6245 78.9045 22.5471C79.1789 22.4549 79.4164 22.2719 79.5803 22.0263C79.7441 21.7806 79.8253 21.486 79.8112 21.188C79.8047 20.9677 79.7551 20.7511 79.6654 20.5512C79.5757 20.3513 79.4478 20.1723 79.2894 20.0249C79.131 19.8776 78.9453 19.7649 78.7436 19.6939C78.542 19.6228 78.3285 19.5947 78.116 19.6113ZM78.9833 21.2287C78.9833 22.085 78.3 22.1937 77.7612 22.1937H76.0135V20.3317H77.9715C78.7074 20.3317 78.9833 20.7258 78.9833 21.2287ZM79.2461 23.9878C79.2461 24.9256 78.5102 25.0207 77.932 25.0207H76.0135V22.8869H78.024C78.7336 22.8869 79.2461 23.05 79.2461 23.9878ZM32.1111 19.6114V22.2209C32.2612 22.0058 32.4587 21.8308 32.6872 21.7102C32.9157 21.5897 33.1686 21.5272 33.4251 21.5277C33.6875 21.5334 33.9457 21.5958 34.1833 21.7109C34.4209 21.8261 34.6325 21.9914 34.8045 22.1962C34.9766 22.4011 35.1053 22.6409 35.1823 22.9003C35.2593 23.1597 35.283 23.433 35.2517 23.7024C35.2517 24.912 34.6473 25.877 33.412 25.877C33.1592 25.8802 32.9091 25.823 32.6812 25.7098C32.4532 25.5967 32.2536 25.4306 32.0979 25.2246V25.7547H31.4277V19.6114H32.1111ZM33.4251 25.2926C33.9508 25.2926 34.6473 24.9528 34.6473 23.6344C34.6637 23.4459 34.6419 23.256 34.5833 23.0767C34.5247 22.8974 34.4305 22.7327 34.3068 22.5933C34.1831 22.4538 34.0326 22.3426 33.8649 22.2668C33.6973 22.191 33.5162 22.1522 33.3332 22.153C32.7944 22.153 32.0191 22.5063 32.0191 23.716C32.0979 24.4227 32.4002 25.2926 33.3332 25.2926H33.4251ZM39.4036 21.6501L37.7347 26.5022C37.4193 27.4264 37.1959 27.7798 36.4995 27.7798C36.2989 27.7788 36.0995 27.7467 35.9081 27.6847V27.0595C36.0514 27.1116 36.2031 27.1347 36.3549 27.1274C36.7491 27.1274 36.8937 26.9643 37.1171 26.2848L37.2879 25.7683L35.9738 21.6908H36.6834L37.6821 24.9528L38.7334 21.6908L39.4036 21.6501ZM47.7873 20.6035C47.7873 20.6035 47.6822 25.578 47.6822 25.7547H48.5232V19.6114H47.4982L45.6585 24.6402L43.845 19.6114H42.7675V25.7683H43.5428C43.5428 25.578 43.464 20.6987 43.464 20.6987L45.3037 25.7547H45.9082L47.7873 20.6035ZM51.5716 21.5276C51.8347 21.5263 52.0951 21.5822 52.3359 21.6915C52.5768 21.8009 52.7928 21.9613 52.9699 22.1624C53.1471 22.3636 53.2814 22.6009 53.3642 22.8592C53.4471 23.1174 53.4766 23.3907 53.4508 23.6615C53.4828 23.9431 53.456 24.2286 53.3724 24.4986C53.2887 24.7686 53.15 25.017 52.9657 25.2269C52.7814 25.4368 52.5558 25.6035 52.304 25.7156C52.0522 25.8277 51.78 25.8827 51.5059 25.8769C51.2343 25.8865 50.9639 25.8354 50.7131 25.7272C50.4623 25.619 50.237 25.4562 50.0524 25.2499C49.8679 25.0435 49.7285 24.7985 49.6437 24.5314C49.5589 24.2644 49.5307 23.9816 49.5611 23.7023C49.5407 23.4194 49.578 23.1352 49.6706 22.8682C49.7632 22.6012 49.909 22.3573 50.0986 22.1523C50.2881 21.9472 50.5172 21.7857 50.771 21.6781C51.0247 21.5705 51.2975 21.5192 51.5716 21.5276ZM51.4928 25.3196C52.3075 25.3196 52.728 24.6673 52.728 23.6071C52.728 22.9004 52.4521 22.0849 51.5585 22.0849C50.3101 22.0849 50.2444 23.444 50.2444 23.743C50.297 24.2323 50.4153 25.3196 51.4928 25.3196ZM57.1563 23.0364V25.7547H57.879V23.1587C57.9128 22.7839 57.8299 22.4077 57.6425 22.085C57.5072 21.9096 57.3352 21.7684 57.1394 21.6719C56.9437 21.5753 56.7293 21.526 56.5124 21.5277C56.2504 21.5103 55.9888 21.5684 55.7568 21.6956C55.5248 21.8228 55.3315 22.014 55.1983 22.2481V21.65H54.5281V25.7275H55.1983V23.2946C55.1892 23.1468 55.2098 22.9987 55.2587 22.8596C55.3076 22.7204 55.3839 22.5932 55.4826 22.486C55.5813 22.3788 55.7004 22.2939 55.8324 22.2365C55.9644 22.1792 56.1064 22.1507 56.2496 22.1529C56.3674 22.1389 56.4868 22.1516 56.5994 22.1903C56.712 22.2289 56.8151 22.2925 56.9015 22.3767C56.9878 22.4608 57.0553 22.5634 57.0994 22.6774C57.1434 22.7913 57.1628 22.9138 57.1563 23.0364ZM62.7549 25.8226C62.789 26.0801 62.7654 26.3423 62.686 26.589C62.6067 26.8356 62.4737 27.0602 62.2972 27.2453C62.1208 27.4304 61.9056 27.5712 61.6683 27.6568C61.431 27.7424 61.1778 27.7705 60.9284 27.739C60.7132 27.7634 60.4954 27.7432 60.2878 27.6796C60.0803 27.616 59.8871 27.5102 59.7194 27.3685C59.5518 27.2268 59.4132 27.0519 59.3117 26.8542C59.2101 26.6564 59.1477 26.4397 59.128 26.2167H59.8771C59.8771 26.8555 60.337 27.1681 60.9678 27.1681C61.8088 27.1681 62.0716 26.7196 62.0716 25.9449V25.143C61.9318 25.3717 61.7376 25.5593 61.5074 25.6878C61.2773 25.8164 61.019 25.8815 60.7575 25.8769C60.4958 25.8732 60.2378 25.8125 60.0002 25.6989C59.7627 25.5853 59.5509 25.4212 59.3786 25.2174C59.2064 25.0136 59.0775 24.7746 59.0004 24.5159C58.9232 24.2572 58.8996 23.9847 58.9309 23.7159C58.8976 23.4443 58.9201 23.1685 58.997 22.9065C59.0739 22.6446 59.2034 22.4023 59.3771 22.1958C59.5508 21.9892 59.7647 21.8229 60.0049 21.7077C60.245 21.5926 60.506 21.5312 60.7707 21.5277C61.0253 21.5297 61.2761 21.5921 61.5039 21.7099C61.7317 21.8276 61.9304 21.9978 62.0847 22.2073V21.65H62.7812L62.7549 25.8226ZM60.8495 22.1529C60.1662 22.1529 59.6143 22.683 59.6143 23.7023C59.6143 24.7217 60.0085 25.2517 60.9284 25.2517C61.8482 25.2517 62.1505 24.5314 62.1505 23.6479C62.1505 22.7645 61.5723 22.1529 60.8495 22.1529ZM66.6218 21.6915C66.381 21.5822 66.1206 21.5263 65.8575 21.5276C65.5834 21.5192 65.3106 21.5705 65.0568 21.6781C64.8031 21.7857 64.574 21.9472 64.3844 22.1523C64.1949 22.3573 64.0491 22.6012 63.9565 22.8682C63.8639 23.1352 63.8266 23.4194 63.847 23.7023C63.8166 23.9816 63.8448 24.2644 63.9296 24.5314C64.0144 24.7985 64.1538 25.0435 64.3383 25.2499C64.5228 25.4562 64.7482 25.619 64.999 25.7272C65.2498 25.8354 65.5202 25.8865 65.7918 25.8769C66.0659 25.8827 66.338 25.8277 66.5899 25.7156C66.8417 25.6035 67.0673 25.4368 67.2516 25.2269C67.4359 25.017 67.5746 24.7686 67.6582 24.4986C67.7419 24.2286 67.7687 23.9431 67.7367 23.6615C67.7624 23.3907 67.7329 23.1174 67.6501 22.8592C67.5673 22.6009 67.4329 22.3636 67.2558 22.1624C67.0787 21.9613 66.8627 21.8009 66.6218 21.6915ZM67.0796 23.6071C67.0796 24.6673 66.6591 25.3196 65.8575 25.3196H65.7918C64.7274 25.3196 64.5829 24.2323 64.596 23.743C64.596 23.444 64.596 22.0849 65.9101 22.0849C66.8037 22.0849 67.0796 22.9004 67.0796 23.6071ZM71.2826 19.6114C72.715 19.6114 73.8057 20.6443 73.8057 22.683C73.8057 24.2189 73.2012 25.7547 71.0592 25.7547H68.9304V19.6114H71.2826ZM69.7452 25.0479H71.1512C72.3865 25.0479 73.0041 24.1509 73.0041 22.6966C73.0041 21.2423 72.4522 20.3453 71.1118 20.3453H69.7977L69.7452 25.0479Z" fill="white"/>
<path fill-rule="evenodd" clip-rule="evenodd" d="M60.0169 0H63.2069V15.5099H60.0169V0ZM55.7864 14.167L56.4571 15.5099H58.1768V9.06225C58.1768 5.63834 56.801 3.52174 53.4218 3.52174C51.839 3.56137 50.3033 4.0877 49.0108 5.0336L49.9567 7.87055C50.7623 7.04842 51.8353 6.56644 52.9661 6.51877C54.0495 6.51877 55.0727 6.98123 55.0727 8.2085C50.0512 8.2085 48.8131 10.6453 48.8131 12.4951C48.8727 13.4525 49.2975 14.3463 49.994 14.98C50.6905 15.6137 51.6018 15.9354 52.5276 15.8745C53.164 15.8848 53.7932 15.7348 54.361 15.4373C54.9288 15.1398 55.418 14.7038 55.7864 14.167V14.167ZM46.7752 12.3172C46.0298 12.7439 45.1938 12.9731 44.3419 12.9842C42.8543 12.9842 41.5474 12.3794 41.4012 10.8142H48.151C48.7185 6.36759 46.5517 3.64624 43.3702 3.64624C40.1888 3.64624 38.3144 6.47431 38.3144 9.64921C38.3144 12.9842 39.9395 15.7678 43.9807 15.7678C45.2598 15.766 46.5215 15.4618 47.6695 14.8785L46.7752 12.3172ZM68.1338 15.5366H64.9954V3.99308H66.715L67.3341 5.58498C67.6206 4.99698 68.0592 4.50275 68.6012 4.15732C69.1432 3.81189 69.7672 3.62881 70.4038 3.62846C71.0112 3.6185 71.61 3.77853 72.1367 4.09163C72.6634 4.40473 73.0986 4.85925 73.396 5.40711C73.6617 4.82603 74.0939 4.34362 74.6338 4.0254C75.1738 3.70719 75.7953 3.5686 76.4141 3.62846C79.5095 3.62846 79.9997 6.59881 79.9997 8.0751V15.4921H76.8612V9.10672C76.8612 7.99506 76.6978 6.81225 75.6746 6.81225C74.8148 6.81225 74.0581 7.70158 74.0581 9.15119V15.501H70.9111C70.9111 15.501 70.9111 9.02668 70.9111 9.00889C70.9111 8.29743 70.8251 6.79447 69.7847 6.79447C68.7443 6.79447 68.1424 8.04842 68.1424 9.10672L68.1338 15.5366ZM31.3496 15.5366H34.4966V9.10672C34.4966 8.04842 34.746 6.74111 35.7864 6.74111C36.2514 6.72659 36.705 6.89143 37.059 7.20356C37.059 7.20356 38.2026 4.53557 38.194 4.53557C37.6609 4.00904 36.9534 3.71316 36.2163 3.7085C35.6633 3.70487 35.1228 3.87927 34.6699 4.20753C34.2169 4.53578 33.8739 5.00163 33.6884 5.54051L33.0693 4.02866H31.3496V15.5366ZM41.4442 8.30632H45.1415C45.0555 6.75889 44.1699 6.20751 43.3101 6.20751C42.7977 6.24175 42.3178 6.47902 41.9702 6.86995C41.6227 7.26088 41.4343 7.77535 41.4442 8.30632V8.30632ZM51.9257 12.0415C51.9257 12.8241 53.1381 13.5711 54.1527 13.0109C55.1673 12.4506 55.0727 11.7125 55.0641 10.6364V10.3785C53.1897 10.3785 51.9257 11.081 51.9257 12.0415V12.0415Z" fill="white"/>
</svg>
